<?xml version="1.0" encoding="UTF-8" standalone="no"?>
<!DOCTYPE svg PUBLIC "-//W3C//DTD SVG 1.1//EN" "http://www.w3.org/Graphics/SVG/1.1/DTD/svg11.dtd">
<svg width="598px" height="89px" version="1.1" xmlns="http://www.w3.org/2000/svg" xmlns:xlink="http://www.w3.org/1999/xlink" xml:space="preserve" xmlns:serif="http://www.serif.com/" style="fill-rule:evenodd;clip-rule:evenodd;stroke-linejoin:round;stroke-miterlimit:2;">
    <path d="M598,8.691c0,-4.797 -3.894,-8.691 -8.691,-8.691l-580.618,0c-4.797,0 -8.691,3.894 -8.691,8.691l0,71.618c0,4.797 3.894,8.691 8.691,8.691l580.618,0c4.797,0 8.691,-3.894 8.691,-8.691l0,-71.618Z" style="fill:#7a7b7d;"/>
    <path d="M80.411,36.858l8.545,-0c-0.077,1.868 -0.266,3.292 -0.567,4.273c-0.301,0.98 -0.814,1.841 -1.54,2.582c-1.081,1.096 -2.532,1.826 -4.354,2.189c-1.822,0.362 -4.933,0.544 -9.333,0.544c-3.459,-0 -6.049,-0.147 -7.77,-0.44c-1.722,-0.294 -3.146,-0.834 -4.273,-1.621c-1.081,-0.772 -1.83,-1.872 -2.246,-3.301c-0.417,-1.428 -0.626,-3.624 -0.626,-6.588c0,-2.702 0.193,-4.74 0.579,-6.114c0.386,-1.374 1.073,-2.463 2.061,-3.266c1.081,-0.864 2.517,-1.459 4.308,-1.783c1.791,-0.324 4.586,-0.486 8.384,-0.486c3.721,-0 6.527,0.169 8.418,0.509c1.891,0.34 3.37,0.934 4.435,1.783c0.896,0.726 1.525,1.618 1.888,2.675c0.362,1.058 0.582,2.637 0.66,4.736l-8.546,0c-0.139,-1.281 -0.706,-2.165 -1.702,-2.651c-0.996,-0.487 -2.722,-0.73 -5.176,-0.73c-2.486,0 -4.223,0.232 -5.211,0.695c-0.618,0.309 -1.058,0.837 -1.32,1.586c-0.263,0.749 -0.394,1.857 -0.394,3.324c-0,1.435 0.139,2.493 0.417,3.172c0.278,0.68 0.772,1.174 1.482,1.483c1.05,0.463 2.764,0.694 5.141,0.694c2.471,0 4.165,-0.223 5.084,-0.671c0.918,-0.448 1.47,-1.313 1.656,-2.594Z" style="fill:#a5aeb7;fill-rule:nonzero;"/>
    <path d="M107.299,22.847c3.813,-0 6.666,0.15 8.557,0.451c1.891,0.301 3.37,0.838 4.435,1.61c1.112,0.803 1.868,1.853 2.27,3.149c0.401,1.297 0.602,3.351 0.602,6.161c-0,2.084 -0.058,3.647 -0.174,4.69c-0.116,1.042 -0.328,1.98 -0.637,2.813c-0.803,2.1 -2.432,3.436 -4.887,4.007c-2.038,0.479 -5.419,0.718 -10.143,0.718c-4.184,-0 -7.18,-0.151 -8.986,-0.452c-1.806,-0.301 -3.25,-0.899 -4.331,-1.795c-1.034,-0.849 -1.725,-1.96 -2.073,-3.335c-0.347,-1.374 -0.521,-3.69 -0.521,-6.947c0,-1.853 0.074,-3.262 0.22,-4.227c0.147,-0.965 0.429,-1.849 0.846,-2.652c0.849,-1.636 2.285,-2.74 4.307,-3.311c2.023,-0.572 5.528,-0.865 10.515,-0.88Zm0.069,6.322c-2.779,0 -4.655,0.216 -5.628,0.649c-0.71,0.324 -1.212,0.864 -1.505,1.621c-0.293,0.756 -0.44,1.876 -0.44,3.358c-0,1.467 0.123,2.516 0.371,3.149c0.247,0.633 0.717,1.112 1.412,1.436c1.066,0.494 2.988,0.741 5.767,0.741c3.18,0 5.215,-0.332 6.102,-0.995c0.888,-0.664 1.332,-2.177 1.332,-4.54c0,-1.482 -0.139,-2.563 -0.417,-3.242c-0.278,-0.679 -0.78,-1.173 -1.505,-1.482c-1.066,-0.463 -2.895,-0.695 -5.489,-0.695Z" style="fill:#a5aeb7;fill-rule:nonzero;"/>
    <path d="M126.335,23.426l7.898,-0l-0,3.358l0.417,-0c1.204,-2.625 4.238,-3.937 9.101,-3.937c2.702,-0 4.848,0.366 6.438,1.1c1.591,0.733 2.841,1.933 3.752,3.601c0.68,-1.668 1.772,-2.868 3.277,-3.601c1.506,-0.734 3.64,-1.1 6.404,-1.1c2.316,-0 4.211,0.227 5.685,0.683c1.475,0.455 2.691,1.192 3.648,2.211c0.957,1.004 1.59,2.135 1.899,3.393c0.309,1.259 0.463,3.339 0.463,6.242l0,10.491l-8.383,-0l-0,-10.491c-0,-1.637 -0.062,-2.779 -0.186,-3.428c-0.123,-0.648 -0.378,-1.166 -0.764,-1.551c-0.818,-0.819 -2.393,-1.228 -4.724,-1.228c-2.455,0 -4.115,0.471 -4.98,1.413c-0.478,0.525 -0.806,1.204 -0.984,2.038c-0.177,0.834 -0.266,2.161 -0.266,3.983l-0,9.264l-8.384,-0l0,-10.491c0,-1.745 -0.05,-2.907 -0.15,-3.486c-0.101,-0.579 -0.344,-1.069 -0.73,-1.47c-0.772,-0.834 -2.324,-1.251 -4.655,-1.251c-2.517,0 -4.23,0.456 -5.141,1.366c-0.479,0.495 -0.807,1.166 -0.985,2.015c-0.177,0.849 -0.266,2.2 -0.266,4.053l0,9.264l-8.384,-0l0,-22.441Z" style="fill:#a5aeb7;fill-rule:nonzero;"/>
    <path d="M178.953,23.426l7.898,-0l-0,3.358l0.416,-0c1.205,-2.625 4.239,-3.937 9.102,-3.937c2.702,-0 4.848,0.366 6.438,1.1c1.591,0.733 2.841,1.933 3.752,3.601c0.679,-1.668 1.772,-2.868 3.277,-3.601c1.505,-0.734 3.64,-1.1 6.404,-1.1c2.316,-0 4.211,0.227 5.685,0.683c1.475,0.455 2.691,1.192 3.648,2.211c0.957,1.004 1.59,2.135 1.899,3.393c0.309,1.259 0.463,3.339 0.463,6.242l0,10.491l-8.384,-0l0,-10.491c0,-1.637 -0.061,-2.779 -0.185,-3.428c-0.123,-0.648 -0.378,-1.166 -0.764,-1.551c-0.818,-0.819 -2.393,-1.228 -4.725,-1.228c-2.454,0 -4.114,0.471 -4.979,1.413c-0.478,0.525 -0.807,1.204 -0.984,2.038c-0.178,0.834 -0.266,2.161 -0.266,3.983l-0,9.264l-8.384,-0l-0,-10.491c-0,-1.745 -0.05,-2.907 -0.151,-3.486c-0.1,-0.579 -0.343,-1.069 -0.729,-1.47c-0.772,-0.834 -2.324,-1.251 -4.655,-1.251c-2.517,0 -4.231,0.456 -5.141,1.366c-0.479,0.495 -0.807,1.166 -0.985,2.015c-0.177,0.849 -0.266,2.2 -0.266,4.053l-0,9.264l-8.384,-0l0,-22.441Z" style="fill:#a5aeb7;fill-rule:nonzero;"/>
    <path d="M246.833,22.847c3.814,-0 6.666,0.15 8.557,0.451c1.892,0.301 3.37,0.838 4.435,1.61c1.112,0.803 1.869,1.853 2.27,3.149c0.401,1.297 0.602,3.351 0.602,6.161c0,2.084 -0.058,3.647 -0.174,4.69c-0.115,1.042 -0.328,1.98 -0.637,2.813c-0.802,2.1 -2.431,3.436 -4.886,4.007c-2.038,0.479 -5.419,0.718 -10.144,0.718c-4.184,-0 -7.179,-0.151 -8.986,-0.452c-1.806,-0.301 -3.25,-0.899 -4.33,-1.795c-1.035,-0.849 -1.726,-1.96 -2.073,-3.335c-0.348,-1.374 -0.521,-3.69 -0.521,-6.947c-0,-1.853 0.073,-3.262 0.22,-4.227c0.146,-0.965 0.428,-1.849 0.845,-2.652c0.849,-1.636 2.285,-2.74 4.308,-3.311c2.022,-0.572 5.527,-0.865 10.514,-0.88Zm0.069,6.322c-2.779,0 -4.655,0.216 -5.627,0.649c-0.71,0.324 -1.212,0.864 -1.506,1.621c-0.293,0.756 -0.44,1.876 -0.44,3.358c0,1.467 0.124,2.516 0.371,3.149c0.247,0.633 0.718,1.112 1.413,1.436c1.065,0.494 2.987,0.741 5.766,0.741c3.181,0 5.215,-0.332 6.103,-0.995c0.888,-0.664 1.331,-2.177 1.331,-4.54c0,-1.482 -0.139,-2.563 -0.416,-3.242c-0.278,-0.679 -0.78,-1.173 -1.506,-1.482c-1.065,-0.463 -2.895,-0.695 -5.489,-0.695Z" style="fill:#a5aeb7;fill-rule:nonzero;"/>
    <path d="M296.834,14.255l-0,31.612l-7.898,-0l0,-2.941l-0.463,-0c-0.586,1.019 -1.235,1.737 -1.945,2.153c-1.544,0.911 -4.2,1.367 -7.967,1.367c-3.026,-0 -5.357,-0.178 -6.994,-0.533c-1.637,-0.355 -2.933,-0.972 -3.891,-1.853c-0.926,-0.833 -1.563,-1.937 -1.91,-3.311c-0.348,-1.374 -0.521,-3.451 -0.521,-6.23c-0,-1.93 0.096,-3.482 0.289,-4.655c0.193,-1.174 0.521,-2.208 0.984,-3.103c0.88,-1.668 2.424,-2.772 4.632,-3.312c1.621,-0.402 4.123,-0.602 7.504,-0.602c2.949,-0 5.06,0.243 6.334,0.729c1.274,0.486 2.312,1.44 3.115,2.86l0.347,0l0,-12.181l8.384,-0Zm-15.447,14.914c-3.304,0 -5.424,0.317 -6.358,0.95c-0.934,0.633 -1.401,2.061 -1.401,4.284c0,1.683 0.139,2.883 0.417,3.601c0.278,0.718 0.795,1.224 1.552,1.517c1.003,0.402 2.763,0.602 5.28,0.602c3.119,0 5.195,-0.324 6.23,-0.972c0.509,-0.309 0.868,-0.803 1.077,-1.482c0.208,-0.68 0.312,-1.676 0.312,-2.988c0,-1.529 -0.138,-2.648 -0.416,-3.358c-0.278,-0.71 -0.772,-1.212 -1.483,-1.505c-1.019,-0.433 -2.756,-0.649 -5.21,-0.649Z" style="fill:#a5aeb7;fill-rule:nonzero;"/>
    <path d="M315.894,22.847c3.813,-0 6.666,0.15 8.557,0.451c1.892,0.301 3.37,0.838 4.435,1.61c1.112,0.803 1.868,1.853 2.27,3.149c0.401,1.297 0.602,3.351 0.602,6.161c-0,2.084 -0.058,3.647 -0.174,4.69c-0.116,1.042 -0.328,1.98 -0.637,2.813c-0.803,2.1 -2.431,3.436 -4.886,4.007c-2.038,0.479 -5.42,0.718 -10.144,0.718c-4.184,-0 -7.179,-0.151 -8.986,-0.452c-1.806,-0.301 -3.25,-0.899 -4.331,-1.795c-1.034,-0.849 -1.725,-1.96 -2.072,-3.335c-0.348,-1.374 -0.521,-3.69 -0.521,-6.947c-0,-1.853 0.073,-3.262 0.22,-4.227c0.146,-0.965 0.428,-1.849 0.845,-2.652c0.849,-1.636 2.285,-2.74 4.308,-3.311c2.022,-0.572 5.527,-0.865 10.514,-0.88Zm0.069,6.322c-2.779,0 -4.655,0.216 -5.627,0.649c-0.711,0.324 -1.212,0.864 -1.506,1.621c-0.293,0.756 -0.44,1.876 -0.44,3.358c0,1.467 0.124,2.516 0.371,3.149c0.247,0.633 0.718,1.112 1.413,1.436c1.065,0.494 2.987,0.741 5.766,0.741c3.181,0 5.215,-0.332 6.103,-0.995c0.887,-0.664 1.331,-2.177 1.331,-4.54c0,-1.482 -0.139,-2.563 -0.417,-3.242c-0.278,-0.679 -0.779,-1.173 -1.505,-1.482c-1.065,-0.463 -2.895,-0.695 -5.489,-0.695Z" style="fill:#a5aeb7;fill-rule:nonzero;"/>
    <path d="M334.931,23.426l7.897,-0l0,3.381l0.417,-0c0.787,-1.436 1.841,-2.455 3.161,-3.057c1.32,-0.602 3.161,-0.903 5.524,-0.903c3.381,-0 5.735,0.663 7.063,1.991c1.328,1.328 1.992,3.683 1.992,7.064c-0,0.201 -0.016,0.702 -0.046,1.505l-7.898,0c0,-1.312 -0.139,-2.231 -0.417,-2.756c-0.54,-0.988 -1.876,-1.482 -4.006,-1.482c-1.992,0 -3.405,0.54 -4.238,1.621c-0.417,0.541 -0.699,1.208 -0.846,2.003c-0.146,0.796 -0.22,2.05 -0.22,3.764l0,9.31l-8.383,-0l-0,-22.441Z" style="fill:#a5aeb7;fill-rule:nonzero;"/>
    <path d="M384.793,38.688l8.36,-0c-0.232,2.439 -0.973,4.191 -2.223,5.257c-1.081,0.941 -2.609,1.594 -4.586,1.957c-1.976,0.362 -4.94,0.544 -8.893,0.544c-3.258,-0 -5.759,-0.158 -7.503,-0.475c-1.745,-0.316 -3.127,-0.861 -4.146,-1.633c-1.081,-0.818 -1.822,-1.91 -2.223,-3.277c-0.402,-1.366 -0.602,-3.47 -0.602,-6.311c-0,-2.13 0.077,-3.732 0.231,-4.805c0.155,-1.073 0.448,-2.042 0.88,-2.907c0.896,-1.791 2.517,-2.956 4.864,-3.497c2.007,-0.463 5.126,-0.694 9.356,-0.694c3.736,-0 6.369,0.131 7.897,0.393c2.718,0.463 4.586,1.479 5.605,3.046c1.019,1.567 1.528,4.203 1.528,7.909c0,0.355 -0.015,1.111 -0.046,2.269l-21.932,0c0,1.143 0.074,1.961 0.22,2.455c0.147,0.494 0.436,0.903 0.869,1.228c0.833,0.617 2.717,0.926 5.651,0.926c1.868,-0 3.269,-0.073 4.203,-0.22c0.934,-0.147 1.571,-0.39 1.911,-0.73c0.278,-0.278 0.471,-0.756 0.579,-1.435Zm0.115,-6.809c-0.031,-0.88 -0.088,-1.486 -0.173,-1.818c-0.085,-0.332 -0.251,-0.629 -0.498,-0.892c-0.726,-0.741 -2.664,-1.112 -5.813,-1.112c-2.826,0 -4.694,0.247 -5.605,0.742c-0.911,0.494 -1.397,1.52 -1.459,3.08l13.548,-0Z" style="fill:#a5aeb7;fill-rule:nonzero;"/>
    <path d="M432.307,14.646l15.151,-0l0,31.431l-9.579,0l0,-23.234l-2.487,0l-9.279,7.83l-5.296,-6.172l11.49,-9.855Z" style="fill:#a5aeb7;fill-rule:nonzero;"/>
    <path d="M465.465,26.344l-9.279,-0c-0,-2.533 0.099,-4.46 0.299,-5.78c0.368,-2.334 1.428,-3.93 3.178,-4.79c1.166,-0.568 2.801,-0.963 4.904,-1.186c2.103,-0.222 5.281,-0.333 9.533,-0.333c6.402,-0 10.501,0.072 12.297,0.218c1.796,0.146 3.208,0.526 4.237,1.14c1.136,0.676 1.922,1.635 2.36,2.878c0.437,1.244 0.656,3.147 0.656,5.711c0,1.842 -0.104,3.297 -0.311,4.364c-0.207,1.067 -0.564,1.968 -1.071,2.705c-0.675,0.998 -1.573,1.697 -2.694,2.096c-1.903,0.675 -4.214,1.097 -6.931,1.266c-6.57,0.384 -10.815,0.664 -12.734,0.841c-1.918,0.176 -3.085,0.403 -3.5,0.679c-0.383,0.261 -0.629,0.541 -0.736,0.84c-0.108,0.3 -0.185,0.918 -0.231,1.854l28.715,0l-0,7.23l-37.511,0c-0.061,-1.243 -0.092,-2.44 -0.092,-3.592c-0,-3.607 0.115,-6.186 0.345,-7.737c0.461,-2.947 2.157,-4.789 5.089,-5.526c1.136,-0.276 2.176,-0.468 3.12,-0.576c0.945,-0.107 3.696,-0.338 8.255,-0.691c4.422,-0.337 7.047,-0.552 7.876,-0.644c0.829,-0.092 1.519,-0.231 2.072,-0.415c0.553,-0.184 0.921,-0.449 1.105,-0.794c0.185,-0.346 0.277,-0.94 0.277,-1.785c-0,-0.906 -0.104,-1.558 -0.311,-1.957c-0.207,-0.399 -0.58,-0.683 -1.117,-0.852c-0.675,-0.23 -3.078,-0.345 -7.207,-0.345c-3.531,-0 -5.995,0.057 -7.392,0.172c-1.397,0.115 -2.264,0.326 -2.602,0.633c-0.261,0.261 -0.426,0.622 -0.495,1.083c-0.069,0.46 -0.104,1.558 -0.104,3.293Z" style="fill:#a5aeb7;fill-rule:nonzero;"/>
    <path d="M505.44,30.005c-1.612,-0.108 -2.802,-0.407 -3.569,-0.898c-1.459,-0.967 -2.188,-2.994 -2.188,-6.079c0,-2.671 0.491,-4.621 1.474,-5.849c0.614,-0.752 1.427,-1.32 2.441,-1.704c1.013,-0.384 2.471,-0.66 4.375,-0.829c2.594,-0.246 5.864,-0.368 9.809,-0.368c7.491,-0 12.243,0.414 14.254,1.243c1.473,0.599 2.502,1.543 3.085,2.832c0.507,1.167 0.76,2.725 0.76,4.675c0,2.487 -0.414,4.233 -1.243,5.238c-0.829,1.006 -2.334,1.585 -4.514,1.739c1.842,0.322 3.094,0.706 3.754,1.151c0.859,0.568 1.47,1.366 1.83,2.395c0.361,1.028 0.541,2.464 0.541,4.306c0,2.594 -0.437,4.475 -1.312,5.641c-0.629,0.829 -1.52,1.455 -2.671,1.877c-1.152,0.422 -2.771,0.718 -4.859,0.887c-1.535,0.122 -4.743,0.184 -9.625,0.184c-4.943,-0 -8.29,-0.065 -10.04,-0.196c-1.75,-0.13 -3.231,-0.426 -4.444,-0.886c-1.443,-0.553 -2.467,-1.397 -3.074,-2.533c-0.606,-1.136 -0.909,-2.794 -0.909,-4.974c-0,-1.965 0.211,-3.477 0.633,-4.536c0.422,-1.06 1.132,-1.858 2.13,-2.395c0.629,-0.338 1.75,-0.645 3.362,-0.921Zm11.375,-8.681c-3.577,-0 -5.807,0.153 -6.689,0.46c-0.883,0.307 -1.324,1.075 -1.324,2.303c-0,1.289 0.406,2.061 1.22,2.314c0.814,0.253 3.285,0.38 7.415,0.38c3.653,0 5.848,-0.019 6.585,-0.058c0.737,-0.038 1.343,-0.165 1.819,-0.379c0.614,-0.277 0.921,-1.037 0.921,-2.28c0,-0.737 -0.138,-1.293 -0.414,-1.67c-0.276,-0.376 -0.722,-0.617 -1.336,-0.725c-1.136,-0.215 -3.868,-0.33 -8.197,-0.345Zm0.967,12.204c-4.682,-0 -7.384,0.123 -8.105,0.368c-0.461,0.154 -0.783,0.426 -0.968,0.818c-0.184,0.391 -0.276,0.994 -0.276,1.807c0,0.86 0.108,1.466 0.323,1.819c0.214,0.354 0.637,0.607 1.266,0.76c0.706,0.185 2.986,0.277 6.839,0.277c4.191,-0 6.969,-0.092 8.336,-0.277c0.736,-0.107 1.243,-0.357 1.519,-0.748c0.277,-0.391 0.415,-1.071 0.415,-2.038c-0,-0.783 -0.1,-1.351 -0.299,-1.704c-0.2,-0.353 -0.568,-0.599 -1.106,-0.737c-0.506,-0.153 -3.154,-0.268 -7.944,-0.345Z" style="fill:#a5aeb7;fill-rule:nonzero;"/>
    <path d="M58.247,73.95l0,-16.92l9.511,0c2.496,0.058 4,0.124 4.514,0.198c0.477,0.075 0.915,0.267 1.315,0.577c0.4,0.31 0.699,0.696 0.897,1.159c0.323,0.744 0.485,1.843 0.485,3.297c-0,1.141 -0.086,2.039 -0.259,2.696c-0.172,0.657 -0.457,1.176 -0.853,1.556c-0.404,0.388 -0.824,0.651 -1.26,0.787c-0.437,0.136 -1.114,0.221 -2.031,0.254c-0.331,0.008 -1.266,0.017 -2.808,0.025l-7.507,-0l-0,6.371l-2.004,0Zm2.004,-8.354l7.507,-0c1.835,-0.009 2.976,-0.042 3.424,-0.1c0.448,-0.057 0.826,-0.227 1.134,-0.508c0.227,-0.215 0.385,-0.514 0.473,-0.898c0.088,-0.385 0.132,-0.969 0.132,-1.754c0,-0.868 -0.038,-1.486 -0.115,-1.854c-0.077,-0.367 -0.23,-0.65 -0.457,-0.849c-0.294,-0.248 -0.662,-0.403 -1.106,-0.465c-0.444,-0.062 -1.606,-0.113 -3.485,-0.155l-7.507,0l-0,6.583Z" style="fill:#a5aeb7;fill-rule:nonzero;"/>
    <path d="M87.143,73.95l-0,-16.92l14.729,0l-0,1.983l-12.726,0l0,5.169l12.186,0l0,1.984l-12.186,-0l0,5.801l12.737,-0l-0,1.983l-14.74,0Z" style="fill:#a5aeb7;fill-rule:nonzero;"/>
    <path d="M114.068,73.95l-0,-16.92l9.368,0c2.539,0.033 4.161,0.103 4.865,0.211c1.241,0.182 2.099,0.81 2.576,1.884c0.316,0.719 0.474,1.723 0.474,3.012c-0,0.975 -0.048,1.717 -0.143,2.225c-0.096,0.508 -0.265,0.915 -0.507,1.221c-0.389,0.488 -0.998,0.831 -1.827,1.029c0.646,0.124 1.159,0.405 1.541,0.843c0.286,0.347 0.47,0.76 0.55,1.24c0.081,0.479 0.122,1.429 0.122,2.851l-0,2.404l-2.004,0l0,-1.624c0,-1.38 -0.026,-2.334 -0.077,-2.863c-0.147,-1.074 -0.686,-1.702 -1.618,-1.884c-0.367,-0.058 -0.696,-0.093 -0.985,-0.105c-0.29,-0.013 -1.279,-0.023 -2.967,-0.031l-7.365,-0l0,6.507l-2.003,0Zm2.003,-8.491l7.365,0c1.952,0 3.203,-0.031 3.754,-0.093c0.55,-0.062 0.998,-0.217 1.343,-0.465c0.513,-0.38 0.77,-1.314 0.77,-2.801c0,-1.281 -0.238,-2.111 -0.715,-2.492c-0.309,-0.247 -0.791,-0.409 -1.448,-0.483c-0.657,-0.074 -1.891,-0.112 -3.704,-0.112l-7.365,0l0,6.446Z" style="fill:#a5aeb7;fill-rule:nonzero;"/>
    <path d="M143.569,68.657l1.948,0c0,0.19 0.004,0.314 0.011,0.372c0.015,0.951 0.075,1.587 0.182,1.909c0.106,0.322 0.339,0.57 0.699,0.744c0.558,0.273 2.381,0.409 5.471,0.409c2.238,-0 3.846,-0.124 4.822,-0.372c0.961,-0.24 1.442,-1.078 1.442,-2.516c-0,-0.727 -0.077,-1.275 -0.232,-1.643c-0.154,-0.367 -0.418,-0.626 -0.792,-0.774c-0.374,-0.149 -0.899,-0.236 -1.574,-0.261c-0.675,-0.025 -2.866,-0.037 -6.572,-0.037c-1.248,0 -2.246,-0.13 -2.994,-0.39c-0.749,-0.261 -1.325,-0.676 -1.729,-1.246c-0.477,-0.678 -0.715,-1.707 -0.715,-3.087c-0,-1.528 0.378,-2.636 1.134,-3.322c0.367,-0.339 0.774,-0.595 1.221,-0.768c0.448,-0.174 1.076,-0.314 1.883,-0.422c1.328,-0.182 2.906,-0.272 4.733,-0.272c1.696,-0 3.006,0.097 3.93,0.291c0.925,0.194 1.644,0.527 2.158,0.998c0.426,0.388 0.717,0.843 0.875,1.363c0.158,0.521 0.244,1.322 0.259,2.405l-2.004,0l0,-0.26c0,-0.827 -0.08,-1.38 -0.242,-1.661c-0.235,-0.438 -0.747,-0.752 -1.535,-0.942c-0.789,-0.19 -1.965,-0.285 -3.529,-0.285c-1.944,-0 -3.403,0.082 -4.375,0.247c-0.973,0.166 -1.631,0.438 -1.976,0.819c-0.323,0.363 -0.485,0.966 -0.485,1.809c0,0.761 0.081,1.302 0.242,1.624c0.162,0.322 0.477,0.566 0.947,0.732c0.683,0.247 1.996,0.38 3.941,0.396c0.661,0.008 2.293,0.017 4.899,0.025c1.079,0.008 1.906,0.124 2.482,0.347c0.576,0.223 1.048,0.607 1.415,1.153c0.455,0.694 0.682,1.686 0.682,2.975c0,1.231 -0.187,2.202 -0.561,2.913c-0.448,0.826 -1.279,1.38 -2.494,1.661c-1.214,0.281 -3.396,0.421 -6.544,0.421c-1.666,0 -2.893,-0.055 -3.682,-0.167c-0.789,-0.112 -1.415,-0.316 -1.877,-0.614c-0.558,-0.355 -0.943,-0.807 -1.156,-1.357c-0.213,-0.55 -0.319,-1.37 -0.319,-2.461c-0,-0.049 0.003,-0.301 0.011,-0.756Z" style="fill:#a5aeb7;fill-rule:nonzero;"/>
    <path d="M182.306,56.981c2.568,-0 4.379,0.093 5.432,0.278c1.053,0.186 1.822,0.548 2.306,1.085c0.309,0.339 0.54,0.742 0.694,1.209c0.154,0.467 0.275,1.121 0.363,1.964c0.11,1.066 0.165,2.413 0.165,4.041c0,2.083 -0.086,3.659 -0.258,4.729c-0.173,1.071 -0.472,1.854 -0.898,2.349c-0.44,0.529 -1.165,0.891 -2.174,1.085c-1.009,0.194 -2.662,0.291 -4.959,0.291c-1.13,0 -2.383,-0.02 -3.759,-0.062c-1.376,-0.041 -2.281,-0.082 -2.714,-0.124c-0.748,-0.082 -1.339,-0.219 -1.772,-0.409c-0.433,-0.19 -0.818,-0.487 -1.156,-0.892c-0.448,-0.529 -0.747,-1.273 -0.897,-2.231c-0.151,-0.959 -0.226,-2.579 -0.226,-4.86c0,-2.694 0.165,-4.607 0.496,-5.739c0.396,-1.339 1.302,-2.128 2.719,-2.367c1.299,-0.223 3.511,-0.339 6.638,-0.347Zm-1.156,2.032c-2.099,0 -3.64,0.095 -4.624,0.286c-0.572,0.107 -0.985,0.291 -1.238,0.551c-0.253,0.26 -0.431,0.684 -0.534,1.271c-0.169,0.942 -0.253,2.322 -0.253,4.14c-0,1.868 0.046,3.229 0.137,4.084c0.092,0.856 0.259,1.428 0.501,1.717c0.191,0.24 0.466,0.413 0.826,0.521c0.359,0.107 0.928,0.19 1.706,0.248c1.284,0.099 2.778,0.148 4.48,0.148c2.422,0 4.184,-0.111 5.284,-0.334c0.866,-0.166 1.38,-0.74 1.542,-1.723c0.168,-1.058 0.253,-2.496 0.253,-4.314c-0,-2.223 -0.074,-3.789 -0.22,-4.698c-0.147,-0.926 -0.716,-1.475 -1.707,-1.649c-0.579,-0.099 -1.233,-0.163 -1.959,-0.192c-0.727,-0.029 -2.125,-0.047 -4.194,-0.056Z" style="fill:#a5aeb7;fill-rule:nonzero;"/>
    <path d="M203.969,57.03l3.335,0l13.166,14.838l0.462,-0l0,-14.838l2.004,0l-0,16.92l-3.391,0l-13.132,-14.8l-0.441,-0l0,14.8l-2.003,0l-0,-16.92Z" style="fill:#a5aeb7;fill-rule:nonzero;"/>
    <path d="M252.921,73.95l-1.783,-3.57l-12.153,0l-1.795,3.57l-2.267,0l8.52,-16.92l3.203,0l8.499,16.92l-2.224,0Zm-2.741,-5.553l-4.678,-9.384l-0.804,0l-4.745,9.384l10.227,0Z" style="fill:#a5aeb7;fill-rule:nonzero;"/>
    <path d="M266.79,57.03l2.004,0l-0,14.937l11.867,-0l-0,1.983l-13.871,0l0,-16.92Z" style="fill:#a5aeb7;fill-rule:nonzero;"/>
    <path d="M324.24,68.162l1.949,-0c-0.052,1.537 -0.133,2.594 -0.243,3.173c-0.242,1.256 -0.987,2.029 -2.234,2.318c-1.013,0.231 -2.815,0.347 -5.405,0.347c-3.361,-0 -5.633,-0.132 -6.814,-0.397c-1.123,-0.256 -1.879,-0.919 -2.268,-1.989c-0.389,-1.07 -0.584,-3.023 -0.584,-5.857c0,-2.703 0.147,-4.665 0.441,-5.888c0.352,-1.446 1.258,-2.289 2.719,-2.529c1.409,-0.24 3.475,-0.359 6.197,-0.359c2.598,-0 4.459,0.144 5.582,0.433c0.557,0.141 1.04,0.416 1.447,0.825c0.408,0.409 0.666,0.882 0.776,1.419c0.11,0.504 0.173,1.492 0.187,2.963l-1.86,-0c-0.007,-0.29 -0.011,-0.484 -0.011,-0.583c0,-0.81 -0.07,-1.386 -0.209,-1.729c-0.14,-0.343 -0.411,-0.606 -0.815,-0.787c-0.741,-0.339 -2.473,-0.509 -5.196,-0.509c-1.974,0 -3.456,0.06 -4.447,0.18c-0.991,0.12 -1.637,0.312 -1.937,0.577c-0.287,0.264 -0.498,0.809 -0.633,1.636c-0.136,0.826 -0.204,1.975 -0.204,3.446c-0,0.694 0.026,1.591 0.077,2.69c0.051,1.099 0.103,1.855 0.154,2.268c0.081,0.653 0.266,1.126 0.556,1.419c0.29,0.294 0.747,0.474 1.371,0.54c1.137,0.132 2.763,0.198 4.876,0.198c0.646,-0 1.492,-0.023 2.538,-0.068c1.045,-0.046 1.711,-0.089 1.998,-0.13c0.557,-0.083 0.972,-0.209 1.244,-0.378c0.271,-0.17 0.458,-0.424 0.561,-0.763c0.095,-0.297 0.158,-1.119 0.187,-2.466Z" style="fill:#a5aeb7;fill-rule:nonzero;"/>
    <path d="M348.226,56.981c2.569,-0 4.379,0.093 5.433,0.278c1.053,0.186 1.821,0.548 2.306,1.085c0.308,0.339 0.539,0.742 0.693,1.209c0.154,0.467 0.275,1.121 0.364,1.964c0.11,1.066 0.165,2.413 0.165,4.041c-0,2.083 -0.087,3.659 -0.259,4.729c-0.173,1.071 -0.472,1.854 -0.897,2.349c-0.441,0.529 -1.165,0.891 -2.174,1.085c-1.009,0.194 -2.663,0.291 -4.96,0.291c-1.13,0 -2.383,-0.02 -3.759,-0.062c-1.376,-0.041 -2.28,-0.082 -2.713,-0.124c-0.749,-0.082 -1.34,-0.219 -1.773,-0.409c-0.433,-0.19 -0.818,-0.487 -1.156,-0.892c-0.447,-0.529 -0.746,-1.273 -0.897,-2.231c-0.15,-0.959 -0.225,-2.579 -0.225,-4.86c-0,-2.694 0.165,-4.607 0.495,-5.739c0.396,-1.339 1.303,-2.128 2.719,-2.367c1.299,-0.223 3.512,-0.339 6.638,-0.347Zm-1.156,2.032c-2.099,0 -3.64,0.095 -4.623,0.286c-0.573,0.107 -0.986,0.291 -1.239,0.551c-0.253,0.26 -0.431,0.684 -0.534,1.271c-0.169,0.942 -0.253,2.322 -0.253,4.14c0,1.868 0.046,3.229 0.138,4.084c0.091,0.856 0.258,1.428 0.501,1.717c0.19,0.24 0.466,0.413 0.825,0.521c0.36,0.107 0.929,0.19 1.706,0.248c1.285,0.099 2.778,0.148 4.481,0.148c2.422,0 4.183,-0.111 5.284,-0.334c0.866,-0.166 1.379,-0.74 1.541,-1.723c0.169,-1.058 0.253,-2.496 0.253,-4.314c0,-2.223 -0.073,-3.789 -0.22,-4.698c-0.147,-0.926 -0.716,-1.475 -1.706,-1.649c-0.58,-0.099 -1.233,-0.163 -1.96,-0.192c-0.726,-0.029 -2.124,-0.047 -4.194,-0.056Z" style="fill:#a5aeb7;fill-rule:nonzero;"/>
    <path d="M369.889,57.03l4.007,0l8.157,14.342l8.025,-14.342l4.029,0l0,16.92l-2.003,0l-0,-14.825l-0.837,0l-8.388,14.825l-1.629,0l-8.477,-14.825l-0.88,0l-0,14.825l-2.004,0l0,-16.92Z" style="fill:#a5aeb7;fill-rule:nonzero;"/>
    <path d="M407.107,73.95l-0,-16.92l9.511,0c2.495,0.058 4,0.124 4.513,0.198c0.477,0.075 0.916,0.267 1.316,0.577c0.4,0.31 0.699,0.696 0.897,1.159c0.323,0.744 0.484,1.843 0.484,3.297c0,1.141 -0.086,2.039 -0.258,2.696c-0.173,0.657 -0.457,1.176 -0.854,1.556c-0.403,0.388 -0.823,0.651 -1.26,0.787c-0.437,0.136 -1.114,0.221 -2.031,0.254c-0.33,0.008 -1.266,0.017 -2.807,0.025l-7.508,-0l0,6.371l-2.003,0Zm2.003,-8.354l7.508,-0c1.835,-0.009 2.976,-0.042 3.423,-0.1c0.448,-0.057 0.826,-0.227 1.134,-0.508c0.228,-0.215 0.386,-0.514 0.474,-0.898c0.088,-0.385 0.132,-0.969 0.132,-1.754c-0,-0.868 -0.039,-1.486 -0.116,-1.854c-0.077,-0.367 -0.229,-0.65 -0.457,-0.849c-0.293,-0.248 -0.662,-0.403 -1.106,-0.465c-0.444,-0.062 -1.605,-0.113 -3.484,-0.155l-7.508,0l0,6.583Z" style="fill:#a5aeb7;fill-rule:nonzero;"/>
    <path d="M435.859,57.03l2.004,0l-0,8.318c-0,2.454 0.022,3.933 0.066,4.437c0.058,0.645 0.223,1.112 0.495,1.401c0.272,0.289 0.723,0.479 1.354,0.57c1.042,0.141 2.543,0.211 4.502,0.211c2.686,-0 4.536,-0.091 5.549,-0.273c0.601,-0.107 1.025,-0.316 1.271,-0.626c0.246,-0.31 0.387,-0.816 0.424,-1.518c0.037,-0.636 0.062,-2.037 0.077,-4.202l-0,-8.318l2.003,0l0,8.318c-0.014,2.256 -0.051,3.813 -0.11,4.673c-0.132,1.471 -0.612,2.496 -1.442,3.074c-0.513,0.347 -1.137,0.566 -1.871,0.657c-0.734,0.091 -2.543,0.174 -5.427,0.248c-2.532,-0.041 -4.048,-0.077 -4.547,-0.105c-0.499,-0.029 -1.045,-0.114 -1.64,-0.255c-0.991,-0.239 -1.717,-0.867 -2.179,-1.884c-0.221,-0.496 -0.358,-1.088 -0.413,-1.779c-0.055,-0.69 -0.094,-2.233 -0.116,-4.629l0,-8.318Z" style="fill:#a5aeb7;fill-rule:nonzero;"/>
    <path d="M465.338,57.03l17.074,0l-0,1.983l-7.519,0l0,14.937l-2.003,0l-0,-14.937l-7.552,0l0,-1.983Z" style="fill:#a5aeb7;fill-rule:nonzero;"/>
    <path d="M494.289,73.95l-0,-16.92l14.729,0l-0,1.983l-12.726,0l0,5.169l12.186,0l0,1.984l-12.186,-0l0,5.801l12.737,-0l-0,1.983l-14.74,0Z" style="fill:#a5aeb7;fill-rule:nonzero;"/>
    <path d="M521.214,73.95l-0,-16.92l9.368,0c2.539,0.033 4.161,0.103 4.865,0.211c1.24,0.182 2.099,0.81 2.576,1.884c0.316,0.719 0.474,1.723 0.474,3.012c-0,0.975 -0.048,1.717 -0.144,2.225c-0.095,0.508 -0.264,0.915 -0.506,1.221c-0.389,0.488 -0.998,0.831 -1.827,1.029c0.645,0.124 1.159,0.405 1.541,0.843c0.286,0.347 0.469,0.76 0.55,1.24c0.081,0.479 0.121,1.429 0.121,2.851l0,2.404l-2.003,0l-0,-1.624c-0,-1.38 -0.026,-2.334 -0.077,-2.863c-0.147,-1.074 -0.686,-1.702 -1.618,-1.884c-0.367,-0.058 -0.696,-0.093 -0.986,-0.105c-0.29,-0.013 -1.278,-0.023 -2.966,-0.031l-7.365,-0l0,6.507l-2.003,0Zm2.003,-8.491l7.365,0c1.952,0 3.203,-0.031 3.753,-0.093c0.551,-0.062 0.998,-0.217 1.343,-0.465c0.514,-0.38 0.771,-1.314 0.771,-2.801c-0,-1.281 -0.239,-2.111 -0.716,-2.492c-0.308,-0.247 -0.79,-0.409 -1.447,-0.483c-0.657,-0.074 -1.892,-0.112 -3.704,-0.112l-7.365,0l0,6.446Z" style="fill:#a5aeb7;fill-rule:nonzero;"/>
</svg>
