<?xml version="1.0" encoding="UTF-8" standalone="no"?>
<!DOCTYPE svg PUBLIC "-//W3C//DTD SVG 1.1//EN" "http://www.w3.org/Graphics/SVG/1.1/DTD/svg11.dtd">
<svg width="547px" height="58px" version="1.1" xmlns="http://www.w3.org/2000/svg" xmlns:xlink="http://www.w3.org/1999/xlink" xml:space="preserve" xmlns:serif="http://www.serif.com/" style="fill-rule:evenodd;clip-rule:evenodd;stroke-linejoin:round;stroke-miterlimit:2;">
    <g id="g1921">
        <path id="rect1119" d="M39.603,0c-4.936,0.004 -9.301,2.622 -10.649,6.386l-0.072,-0.065l-28.882,51.605l15.848,0l23.746,-40.089l15.868,26.79l-23.602,-0l-8.944,13.299l79.698,0l0,-13.299l-0.159,-0l-0,-24.718l30.888,38.017l20.873,0l-0,-44.594l59.177,-0l-0,9.309l-52.207,0l0,35.285l52.99,-0c8.309,-0 14.997,-6.689 14.997,-14.998l0,-27.323c0,-8.309 -6.688,-14.997 -14.997,-14.997l-59.659,-0c-0.101,-0 -0.201,0.003 -0.301,0.007l-0,-0.007l-15.682,-0l-0,40.249l-31.671,-40.249l-20.092,0.001l0,44.019l-15.026,-0l-21.438,-38.306l-0.053,0.048c-1.356,-3.759 -5.72,-6.368 -10.65,-6.37l-0.001,0Zm206.304,0.608c-6.577,0 -11.873,9.055 -11.873,20.302l0,16.714c0,11.247 5.296,20.303 11.873,20.303l56.751,-0l0,-13.453l-51.27,-0l-0,-9.487l51.27,0l0,-11.745l-51.724,0l0,-9.486l111.126,-0l0,9.486l-51.384,0l0,34.685l14.834,-0l0,-22.587l34.834,0c0.945,1.12 4.034,6.038 4.034,22.587l38.201,-0l-0,-0.783c0.118,-0.215 0.19,-0.459 0.19,-0.723l0,-10.801c0,-0.264 -0.072,-0.508 -0.19,-0.723l-0,-24.989l30.891,38.019l20.87,-0l-0,-43.963l7.781,-0l0,43.963l15.332,-0l-0,-57.319l-38.794,0l0,40.249l-31.672,-40.249l-20.09,0l-0,43.508l-9.33,0c-0.529,-4.57 -1.441,-9.557 -3.018,-13.81c1.221,-2.035 1.95,-4.541 1.95,-7.268l0,-10.127c0,-6.816 -4.497,-12.303 -10.083,-12.303l-120.509,0Zm251.734,0c-6.682,0 -12.062,5.379 -12.062,12.061l-0,33.195c-0,6.682 5.38,12.063 12.062,12.063l48.964,-0l-0,-12.897l-46.555,0l0,-31.059l46.555,0l-0,-13.363l-48.964,0Zm-322.662,34.893l38.656,0l0,9.31l-38.656,-0l0,-9.31Z" style="fill:#f00;fill-rule:nonzero;"/>
    </g>
</svg>
