<?xml version="1.0" encoding="UTF-8" standalone="no"?>
<!DOCTYPE svg PUBLIC "-//W3C//DTD SVG 1.1//EN" "http://www.w3.org/Graphics/SVG/1.1/DTD/svg11.dtd">
<svg width="491px" height="150px" version="1.1" xmlns="http://www.w3.org/2000/svg" xmlns:xlink="http://www.w3.org/1999/xlink" xml:space="preserve" xmlns:serif="http://www.serif.com/" style="fill-rule:evenodd;clip-rule:evenodd;">
    <g id="layer3" opacity="0.94">
        <g id="g41">
            <path id="path5" d="M138.401,89.01c-1.343,-5.002 -3.604,-9.364 -6.777,-13.092c-0.954,-18.81 -11.029,-35.212 -25.889,-44.876c0.002,-0.082 0.006,-0.162 0.006,-0.245c0,-2.262 -0.902,-4.344 -2.708,-6.245c-6.863,-7.061 -15.214,-10.593 -25.054,-10.593c-9.751,0 -17.944,3.322 -24.579,9.967c-1.073,1.074 -2.058,2.19 -2.958,3.346c-19.34,9.114 -32.726,28.781 -32.726,51.578c-0,1.224 0.043,2.437 0.118,3.641c-1.115,1.083 -1.934,2.502 -2.454,4.261c-2.683,9.474 -1.566,18.472 3.353,26.993c4.876,8.445 11.849,13.879 20.921,16.303c4.141,1.107 8.217,1.451 12.23,1.035c6.988,3.058 14.706,4.758 22.823,4.758c10.427,0 20.199,-2.802 28.607,-7.692c0.741,1.119 1.727,2.039 2.965,2.753c1.96,1.132 4.215,1.391 6.764,0.778c9.545,-2.414 16.78,-7.88 21.7,-16.401c4.875,-8.445 6.094,-17.201 3.658,-26.269Z" style="fill:#fff;fill-rule:nonzero;stroke:#2e3d25;stroke-width:6.77px;"/>
            <circle id="circle7" cx="74.906" cy="78.954" r="56.991" style="fill:#559338;stroke:#88ba68;stroke-width:1.13px;"/>
            <circle id="circle14" cx="75.921" cy="81.324" r="51.123" style="fill:url(#_Radial1);stroke:#b0d19b;stroke-width:1.13px;"/>
            <path id="path23" d="M138.6,89.113c-2.435,-9.07 -7.883,-16.045 -16.338,-20.926c-8.456,-4.882 -17.238,-6.123 -26.35,-3.72c-1.023,0.27 -2.018,0.579 -2.988,0.925c-0.832,-0.211 -1.729,-0.319 -2.693,-0.319l-12.052,-0c-4.514,-0 -8.352,-1.606 -11.511,-4.821c-3.16,-3.213 -4.74,-7.083 -4.74,-11.612c-0,-4.524 1.578,-8.372 4.736,-11.541c3.156,-3.168 6.992,-4.754 11.504,-4.754c1.171,0 2.344,0.124 3.518,0.369l-9.72,9.649c-1.998,1.971 -2.996,4.075 -2.996,6.313c0,2.507 0.925,4.701 2.776,6.58c1.851,1.88 4.04,2.82 6.569,2.82c2.257,-0 4.378,-0.91 6.365,-2.732l17.334,-16.973c2.617,-1.991 3.927,-4.481 3.927,-7.47c-0,-2.262 -0.903,-4.345 -2.709,-6.246c-6.863,-7.06 -15.214,-10.592 -25.053,-10.592c-9.752,-0 -17.944,3.322 -24.58,9.966c-6.637,6.645 -9.954,14.849 -9.954,24.613c0,9.763 3.317,17.989 9.954,24.68c0.799,0.805 1.621,1.561 2.465,2.269c0.233,0.768 0.57,1.54 1.018,2.315l6.026,10.438c2.257,3.909 2.785,8.035 1.581,12.379c-1.203,4.343 -3.765,7.647 -7.686,9.911c-3.919,2.262 -8.04,2.819 -12.364,1.668c-4.322,-1.149 -7.612,-3.678 -9.869,-7.585c-0.585,-1.014 -1.064,-2.091 -1.439,-3.231l13.216,3.593c2.706,0.744 5.027,0.557 6.965,-0.562c2.171,-1.254 3.609,-3.151 4.311,-5.694c0.702,-2.544 0.422,-4.909 -0.842,-7.098c-1.129,-1.955 -2.977,-3.337 -5.549,-4.148l-23.366,-6.524c-3.033,-1.271 -5.844,-1.16 -8.432,0.334c-1.96,1.131 -3.312,2.955 -4.055,5.469c-2.683,9.473 -1.566,18.472 3.353,26.993c4.876,8.445 11.849,13.878 20.921,16.303c9.073,2.426 17.837,1.196 26.292,-3.686c8.456,-4.882 13.921,-11.867 16.396,-20.96c0.289,-1.059 0.525,-2.113 0.714,-3.163c0.544,-0.583 1.04,-1.257 1.484,-2.028l6.026,-10.437c2.258,-3.909 5.567,-6.429 9.931,-7.558c4.363,-1.13 8.504,-0.564 12.426,1.701c3.918,2.262 6.462,5.552 7.627,9.872c1.166,4.318 0.621,8.432 -1.635,12.339c-0.586,1.015 -1.279,1.968 -2.078,2.863l-3.497,-13.242c-0.708,-2.716 -2.031,-4.632 -3.969,-5.751c-2.171,-1.254 -4.533,-1.55 -7.087,-0.887c-2.553,0.664 -4.461,2.089 -5.725,4.279c-1.129,1.955 -1.402,4.246 -0.818,6.878l6.033,23.499c0.416,3.261 1.917,5.641 4.506,7.135c1.959,1.131 4.214,1.391 6.763,0.777c9.546,-2.413 16.78,-7.879 21.7,-16.4c4.875,-8.445 6.094,-17.201 3.658,-26.27Z" style="fill:url(#_Radial2);fill-rule:nonzero;stroke:#5b7749;stroke-width:1.13px;"/>
            <g id="g39">
                <path id="path30" d="M15.38,86.752c0.52,-1.759 1.339,-3.178 2.454,-4.261c-0.076,-1.204 -0.119,-2.417 -0.119,-3.641c0,-22.797 13.387,-42.464 32.727,-51.578c0.9,-1.156 1.885,-2.272 2.958,-3.346c6.635,-6.645 14.828,-9.967 24.579,-9.967c9.84,0 18.191,3.532 25.054,10.593c1.805,1.901 2.708,3.983 2.708,6.245c0,0.083 -0.005,0.163 -0.007,0.245c8.742,5.685 15.828,13.703 20.375,23.171c1.094,-0.322 2.191,-0.642 3.291,-0.958c-4.561,-9.727 -11.636,-18.039 -20.388,-24.091c-0.146,-1.022 -0.429,-2.023 -0.842,-2.972c-0.63,-1.454 -1.55,-2.78 -2.683,-3.972l-0.021,-0.023l-0.006,-0.005c-3.711,-3.821 -7.902,-6.752 -12.52,-8.703c-4.615,-1.953 -9.638,-2.917 -14.961,-2.915c-5.258,-0.002 -10.199,0.9 -14.73,2.739c-4.532,1.836 -8.637,4.604 -12.245,8.22c-0.972,0.973 -1.881,1.981 -2.727,3.022c-20.097,9.796 -33.945,30.43 -33.947,54.295c-0,0.82 0.018,1.632 0.051,2.437c-1.016,1.313 -1.761,2.847 -2.248,4.505l-0.006,0.02l-0.005,0.017c-1.025,3.618 -1.549,7.218 -1.549,10.776c-0.005,6.523 1.778,12.87 5.228,18.833c0.092,0.159 0.187,0.316 0.281,0.474c0.803,-0.864 1.612,-1.719 2.429,-2.563c-4.728,-8.404 -5.773,-17.27 -3.131,-26.597Z" style="fill:url(#_Linear3);fill-rule:nonzero;"/>
                <path id="path37" d="M105.734,31.042c0.002,-0.082 0.007,-0.162 0.007,-0.245c0,-2.262 -0.903,-4.344 -2.708,-6.245c-6.863,-7.061 -15.214,-10.593 -25.054,-10.593c-9.751,0 -17.944,3.322 -24.579,9.967c-1.073,1.074 -2.058,2.19 -2.958,3.346c-19.34,9.114 -32.727,28.781 -32.727,51.578c0,1.224 0.043,2.437 0.119,3.641c-1.115,1.083 -1.934,2.502 -2.454,4.261c-2.642,9.327 -1.597,18.193 3.13,26.597c0.822,-0.848 1.653,-1.683 2.488,-2.511c27.712,-27.469 62.866,-43.841 101.82,-55.641c1.094,-0.331 2.191,-0.659 3.291,-0.984c-4.547,-9.468 -11.632,-17.486 -20.375,-23.171Z" style="fill:url(#_Linear4);fill-rule:nonzero;"/>
            </g>
        </g>
        <g id="g7033">
            <path id="path7" d="M226.226,73.458l0,4.227l-39.727,-0c0.376,5.948 2.167,10.48 5.377,13.594c3.208,3.116 7.678,4.673 13.406,4.673c3.318,-0 6.535,-0.407 9.651,-1.221c3.114,-0.814 6.206,-2.035 9.274,-3.663l0,8.171c-3.099,1.314 -6.277,2.317 -9.533,3.005c-3.256,0.689 -6.558,1.034 -9.908,1.034c-8.391,-0 -15.035,-2.442 -19.935,-7.326c-4.9,-4.884 -7.349,-11.489 -7.349,-19.817c0,-8.609 2.325,-15.441 6.974,-20.498c4.649,-5.055 10.918,-7.584 18.807,-7.584c7.074,0 12.671,2.278 16.788,6.833c4.116,4.555 6.175,10.747 6.175,18.572Zm-8.64,-2.536c-0.063,-4.726 -1.385,-8.499 -3.968,-11.317c-2.583,-2.818 -6.004,-4.226 -10.261,-4.226c-4.821,-0 -8.68,1.362 -11.575,4.086c-2.896,2.723 -4.564,6.558 -5.002,11.505l30.806,-0.048Z" style="fill:#424241;fill-opacity:0.93;fill-rule:nonzero;"/>
            <path id="path9" d="M265.676,71.909l0,30.007l-8.64,-0l-0,-7.983c-1.973,3.193 -4.431,5.549 -7.373,7.067c-2.943,1.519 -6.544,2.278 -10.801,2.278c-5.385,-0 -9.666,-1.511 -12.843,-4.532c-3.178,-3.021 -4.767,-7.068 -4.767,-12.139c0,-5.917 1.98,-10.378 5.941,-13.383c3.96,-3.006 9.869,-4.509 17.727,-4.509l12.115,0l0,-0.845c0,-3.975 -1.307,-7.051 -3.921,-9.228c-2.614,-2.175 -6.285,-3.264 -11.011,-3.264c-3.006,0 -5.933,0.361 -8.782,1.081c-2.849,0.72 -5.588,1.8 -8.218,3.24l0,-7.983c3.162,-1.221 6.23,-2.136 9.205,-2.747c2.974,-0.61 5.87,-0.916 8.687,-0.916c7.607,0 13.289,1.973 17.046,5.918c3.756,3.944 5.635,9.924 5.635,17.938Zm-17.234,3.569c-6.982,-0 -11.818,0.798 -14.511,2.395c-2.693,1.597 -4.038,4.32 -4.038,8.171c-0,3.068 1.01,5.502 3.029,7.302c2.019,1.801 4.766,2.7 8.241,2.7c4.79,0 8.633,-1.698 11.529,-5.095c2.895,-3.396 4.344,-7.912 4.344,-13.548l-0,-1.925l-8.594,0l-0,-0Z" style="fill:#424241;fill-opacity:0.93;fill-rule:nonzero;"/>
            <path id="path11" d="M302.577,50.871l-0,8.171c-2.442,-1.252 -4.978,-2.191 -7.608,-2.818c-2.629,-0.626 -5.353,-0.939 -8.171,-0.939c-4.289,-0 -7.506,0.658 -9.65,1.972c-2.145,1.315 -3.216,3.287 -3.216,5.918c-0,2.003 0.766,3.576 2.301,4.719c1.533,1.143 4.617,2.231 9.251,3.263l2.958,0.658c6.136,1.315 10.496,3.17 13.079,5.564c2.583,2.396 3.874,5.738 3.874,10.027c-0,4.883 -1.934,8.75 -5.8,11.598c-3.866,2.849 -9.18,4.274 -15.943,4.274c-2.817,-0 -5.752,-0.275 -8.804,-0.822c-3.053,-0.548 -6.269,-1.369 -9.651,-2.466l0,-8.922c3.194,1.66 6.34,2.904 9.439,3.734c3.1,0.829 6.168,1.244 9.205,1.244c4.069,0 7.2,-0.696 9.391,-2.089c2.191,-1.393 3.288,-3.358 3.288,-5.894c-0,-2.348 -0.791,-4.148 -2.372,-5.4c-1.581,-1.252 -5.048,-2.457 -10.401,-3.616l-3.006,-0.704c-5.354,-1.127 -9.22,-2.857 -11.599,-5.189c-2.38,-2.332 -3.569,-5.533 -3.569,-9.603c-0,-4.946 1.753,-8.766 5.259,-11.458c3.506,-2.692 8.484,-4.039 14.933,-4.039c3.193,0 6.199,0.235 9.016,0.705c2.818,0.469 5.416,1.173 7.796,2.112Z" style="fill:#424241;fill-opacity:0.93;fill-rule:nonzero;"/>
            <path id="path13" d="M326.803,106.8c-2.441,6.261 -4.822,10.346 -7.138,12.256c-2.317,1.909 -5.416,2.864 -9.298,2.864l-6.903,0l0,-7.232l5.072,0c2.379,0 4.226,-0.563 5.541,-1.69c1.315,-1.127 2.771,-3.788 4.368,-7.983l1.55,-3.945l-21.273,-51.749l9.157,0l16.436,41.137l16.436,-41.137l9.156,0l-23.104,57.479Z" style="fill:#424241;fill-opacity:0.93;fill-rule:nonzero;"/>
            <path id="path15" d="M363.273,82.077l0,19.839l-13.518,-0l0,-52.424l20.647,-0c6.905,-0 11.967,1.159 15.186,3.476c3.218,2.317 4.828,5.982 4.828,10.99c0,3.465 -0.837,6.309 -2.51,8.533c-1.674,2.224 -4.196,3.862 -7.567,4.915c1.849,0.422 3.506,1.376 4.969,2.862c1.462,1.487 2.943,3.74 4.441,6.759l7.339,14.888l-14.397,-0l-6.39,-13.026c-1.288,-2.621 -2.593,-4.412 -3.915,-5.373c-1.323,-0.959 -3.085,-1.439 -5.285,-1.439l-3.828,-0Zm5.689,-9.34c2.832,0 4.863,-0.527 6.092,-1.58c1.229,-1.054 1.843,-2.786 1.843,-5.197c-0,-2.388 -0.614,-4.096 -1.843,-5.126c-1.229,-1.03 -3.26,-1.545 -6.092,-1.545l-5.689,-0l-0,13.448l5.689,0Z" style="fill:#4d603d;fill-opacity:0.94;fill-rule:nonzero;"/>
            <path id="path17" d="M397.938,49.492l22.437,-0c6.671,-0 11.792,1.481 15.362,4.442c3.569,2.962 5.354,7.18 5.354,12.658c-0,5.501 -1.785,9.733 -5.354,12.693c-3.57,2.962 -8.691,4.442 -15.362,4.442l-8.919,0l-0,18.189l-13.518,-0l-0,-52.424Zm13.517,9.796l0,14.643l7.479,-0c2.622,-0 4.647,-0.638 6.075,-1.914c1.427,-1.276 2.142,-3.084 2.142,-5.425c0,-2.34 -0.715,-4.143 -2.142,-5.407c-1.428,-1.265 -3.453,-1.897 -6.075,-1.897l-7.479,0Z" style="fill:#4d603d;fill-opacity:0.94;fill-rule:nonzero;"/>
            <path id="path19" d="M490.573,98.018c-3.371,1.639 -6.871,2.868 -10.5,3.687c-3.628,0.819 -7.373,1.229 -11.236,1.229c-8.731,0 -15.648,-2.441 -20.752,-7.321c-5.103,-4.881 -7.654,-11.5 -7.654,-19.857c-0,-8.45 2.598,-15.098 7.795,-19.944c5.196,-4.845 12.312,-7.268 21.348,-7.268c3.488,-0 6.83,0.328 10.026,0.983c3.195,0.656 6.208,1.627 9.041,2.914l-0,10.85c-2.926,-1.662 -5.835,-2.902 -8.725,-3.722c-2.892,-0.819 -5.789,-1.229 -8.691,-1.229c-5.385,0 -9.533,1.505 -12.448,4.513c-2.914,3.008 -4.371,7.31 -4.371,12.904c-0,5.548 1.404,9.831 4.214,12.852c2.809,3.019 6.799,4.529 11.974,4.529c1.404,0 2.709,-0.088 3.914,-0.263c1.205,-0.176 2.288,-0.451 3.249,-0.826l-0,-10.182l-8.252,0l0,-9.06l21.068,0l0,25.211l-0,0Z" style="fill:#4d603d;fill-opacity:0.94;fill-rule:nonzero;"/>
            <g id="g21" opacity="0.3">
                <path id="path23-3" d="M242.995,48.053c-2.818,0 -5.714,0.306 -8.687,0.916c-2.975,0.611 -6.043,1.526 -9.205,2.747l0,7.984c2.63,-1.44 5.369,-2.52 8.218,-3.24c2.849,-0.721 5.776,-1.081 8.782,-1.081c4.726,0 8.397,1.089 11.011,3.264c2.614,2.177 3.921,5.252 3.921,9.228l0,0.845l-12.115,0c-7.858,0 -13.767,1.503 -17.727,4.509c-0.339,0.257 -0.657,0.528 -0.967,0.806l0,-0.572c0,-7.826 -2.059,-14.017 -6.175,-18.572c-4.117,-4.556 -9.713,-6.833 -16.788,-6.833c-7.889,-0 -14.158,2.528 -18.807,7.584c-4.649,5.056 -6.973,11.889 -6.973,20.498c-0,3.261 0.381,6.255 1.132,8.988c2.406,-0.422 5.388,-0.932 8.86,-1.503c-0.512,-1.792 -0.839,-3.768 -0.976,-5.935l36.812,-0c-0.14,0.253 -0.273,0.512 -0.399,0.776c4.287,-0.545 8.739,-1.081 13.318,-1.594c2.829,-0.925 6.897,-1.39 12.212,-1.39l1.127,0c5.283,-0.506 10.671,-0.969 16.108,-1.369l-0,-2.2c-0,-8.014 -1.879,-13.994 -5.636,-17.938c-3.757,-3.945 -9.439,-5.918 -17.046,-5.918Zm-56.215,22.917c0.438,-4.947 2.106,-8.782 5.002,-11.505c2.895,-2.724 6.754,-4.086 11.575,-4.086c4.257,-0 7.678,1.409 10.261,4.226c2.582,2.818 3.904,6.59 3.968,11.317l-30.806,0.048Zm163.058,-21.478l0.069,-0.171l-9.157,0l-9.712,24.307c2.7,0.237 5.344,0.516 7.922,0.841c0.265,0.033 0.533,0.066 0.799,0.099l9.996,-24.871l0,-0.206l0.083,0l-0,0.001Zm-51.117,-0.171l0.132,0.32c-1.302,-0.353 -2.659,-0.648 -4.071,-0.883c-2.818,-0.47 -5.823,-0.705 -9.016,-0.705c-6.45,0 -11.428,1.347 -14.933,4.039c-3.507,2.692 -5.26,6.512 -5.26,11.458c0,4.07 1.19,7.271 3.569,9.603c0.231,0.226 0.479,0.444 0.738,0.659c7.405,-0.498 14.871,-0.872 22.259,-1.075c-1.153,-0.332 -2.381,-0.64 -3.697,-0.922l-2.958,-0.658c-4.634,-1.033 -7.718,-2.12 -9.251,-3.263c-1.534,-1.143 -2.301,-2.716 -2.301,-4.719c-0,-2.63 1.071,-4.602 3.216,-5.918c2.144,-1.314 5.361,-1.972 9.65,-1.972c2.818,-0 5.542,0.313 8.171,0.939c2.63,0.627 5.166,1.566 7.608,2.818l-0,-0.342l5.707,13.884c3.027,0.032 6.021,0.099 8.972,0.207l-9.377,-23.47l-9.158,-0l0,0Zm86.867,3.647c-3.219,-2.317 -8.281,-3.476 -15.186,-3.476l-20.564,-0l-0.083,0.205l0,25.972c10.007,0.975 20.818,1.681 31.929,2.151c-0.437,-0.171 -0.885,-0.308 -1.346,-0.414c3.371,-1.053 5.894,-2.691 7.567,-4.915c1.674,-2.224 2.511,-5.068 2.511,-8.533c-0,-5.008 -1.61,-8.672 -4.828,-10.99Zm-10.533,18.189c-1.23,1.053 -3.261,1.58 -6.093,1.58l-5.689,0l0,-13.448l5.689,-0c2.832,-0 4.863,0.515 6.093,1.545c1.228,1.03 1.842,2.738 1.842,5.126c0,2.411 -0.614,4.144 -1.842,5.197Zm60.682,-17.223c-3.57,-2.961 -8.691,-4.442 -15.362,-4.442l-22.437,-0l-0,28.849c13.12,0.29 26.316,0.283 38.798,0.028c2.9,-2.895 4.355,-6.818 4.355,-11.777c-0,-5.477 -1.785,-9.696 -5.354,-12.658Zm-10.728,18.083c-1.428,1.276 -3.453,1.914 -6.075,1.914l-7.479,-0l0,-14.642l7.479,-0c2.622,-0 4.647,0.632 6.075,1.896c1.427,1.264 2.142,3.067 2.142,5.408c0,2.34 -0.715,4.148 -2.142,5.424Zm44.496,0.79l0,4.222c8.005,-0.519 15.148,-1.155 21.068,-1.885l0,-2.337l-21.068,0Zm1.72,-14.467c2.902,0 5.8,0.41 8.691,1.229c2.891,0.82 5.799,2.061 8.725,3.722l0,-10.85c-2.832,-1.287 -5.846,-2.258 -9.041,-2.914c-3.195,-0.655 -6.537,-0.983 -10.025,-0.983c-9.036,-0 -16.152,2.423 -21.349,7.268c-5.197,4.846 -7.795,11.494 -7.795,19.944c0,0.862 0.034,1.702 0.089,2.527c4.788,-0.118 9.455,-0.274 13.956,-0.462c-0.046,-0.667 -0.07,-1.355 -0.07,-2.065c-0,-5.594 1.457,-9.896 4.371,-12.904c2.915,-3.007 7.064,-4.512 12.448,-4.512Z" style="fill:#fff;fill-rule:nonzero;"/>
            </g>
        </g>
    </g>
    <defs>
        <radialGradient id="_Radial1" cx="0" cy="0" r="1" gradientUnits="userSpaceOnUse" gradientTransform="matrix(51.1227,0,0,51.1227,75.9215,81.3236)"><stop offset="0" style="stop-color:#d8edca;stop-opacity:1"/><stop offset="1" style="stop-color:#9ebf88;stop-opacity:1"/></radialGradient>
        <radialGradient id="_Radial2" cx="0" cy="0" r="1" gradientUnits="userSpaceOnUse" gradientTransform="matrix(60.9555,0,0,60.9555,76.9881,73.0848)"><stop offset="0" style="stop-color:#688c51;stop-opacity:1"/><stop offset="0.47" style="stop-color:#587b42;stop-opacity:1"/><stop offset="1" style="stop-color:#42632d;stop-opacity:1"/></radialGradient>
        <linearGradient id="_Linear3" x1="0" y1="0" x2="1" y2="0" gradientUnits="userSpaceOnUse" gradientTransform="matrix(25.9563,53.041,-53.041,25.9563,44.3363,26.6967)"><stop offset="0" style="stop-color:#fff;stop-opacity:0.25"/><stop offset="1" style="stop-color:#fff;stop-opacity:0.25"/></linearGradient>
        <linearGradient id="_Linear4" x1="0" y1="0" x2="1" y2="0" gradientUnits="userSpaceOnUse" gradientTransform="matrix(25.9563,53.041,-53.041,25.9563,44.3388,26.6955)"><stop offset="0" style="stop-color:#fff;stop-opacity:0.25"/><stop offset="1" style="stop-color:#fff;stop-opacity:0.25"/></linearGradient>
    </defs>
</svg>
