<?xml version="1.0" encoding="UTF-8" standalone="no"?>
<!DOCTYPE svg PUBLIC "-//W3C//DTD SVG 1.1//EN" "http://www.w3.org/Graphics/SVG/1.1/DTD/svg11.dtd">
<svg width="5440px" height="640px" version="1.1" xmlns="http://www.w3.org/2000/svg" xmlns:xlink="http://www.w3.org/1999/xlink" xml:space="preserve" xmlns:serif="http://www.serif.com/" style="fill-rule:evenodd;clip-rule:evenodd;stroke-linejoin:round;stroke-miterlimit:2;">
    <g>
        <path d="M0,640l0,75.706l0,-75.706Zm1119.5,-558.4c0.9,0.4 2.1,1.7 2.6,3.1c0.5,1.3 2,2.8 3.5,3.3c3.2,1.3 5.1,3.2 6.4,6.4c0.5,1.5 2.1,3.1 3.6,3.6c3.2,1.3 5.1,3.2 6.4,6.4c0.5,1.5 2.1,3.1 3.6,3.6c3.2,1.3 5.1,3.2 6.4,6.4c0.5,1.5 2.1,3.1 3.6,3.6c3.2,1.3 5.1,3.2 6.4,6.4c0.5,1.5 2.1,3.1 3.6,3.6c3.2,1.3 5.1,3.2 6.4,6.4c0.5,1.5 2.1,3.1 3.6,3.6c3.2,1.3 5.1,3.2 6.4,6.4c0.5,1.5 2.1,3.1 3.6,3.6c3.2,1.3 5.1,3.2 6.4,6.4c0.5,1.5 2,3 3.3,3.5c1.4,0.5 2.7,1.7 3.1,2.6c0.8,2.2 0.8,316.8 -0,319c-0.4,0.9 -1.7,2.1 -3.1,2.6c-1.3,0.5 -2.8,2 -3.3,3.5c-1.3,3.2 -3.2,5.1 -6.4,6.4c-1.5,0.5 -3.1,2.1 -3.6,3.6c-1.3,3.2 -3.2,5.1 -6.4,6.4c-1.5,0.5 -3.1,2.1 -3.6,3.6c-1.3,3.2 -3.2,5.1 -6.4,6.4c-1.5,0.5 -3.1,2.1 -3.6,3.6c-1.3,3.2 -3.2,5.1 -6.4,6.4c-1.5,0.5 -3.1,2.1 -3.6,3.6c-1.3,3.2 -3.2,5.1 -6.4,6.4c-1.5,0.5 -3.1,2.1 -3.6,3.6c-1.3,3.2 -3.2,5.1 -6.4,6.4c-1.5,0.5 -3.1,2.1 -3.6,3.6c-1.3,3.2 -3.2,5.1 -6.4,6.4c-1.5,0.5 -3,2 -3.5,3.3c-0.5,1.4 -1.7,2.7 -2.6,3.1c-2.2,0.8 -316.8,0.8 -319,-0c-0.9,-0.4 -2.1,-1.7 -2.6,-3.1c-0.5,-1.3 -2,-2.8 -3.5,-3.3c-3.2,-1.3 -5.1,-3.2 -6.4,-6.4c-0.5,-1.5 -2.1,-3.1 -3.6,-3.6c-3.2,-1.3 -5.1,-3.2 -6.4,-6.4c-0.5,-1.5 -2.1,-3.1 -3.6,-3.6c-3.2,-1.3 -5.1,-3.2 -6.4,-6.4c-0.5,-1.5 -2.1,-3.1 -3.6,-3.6c-3.2,-1.3 -5.1,-3.2 -6.4,-6.4c-0.5,-1.5 -2.1,-3.1 -3.6,-3.6c-3.2,-1.3 -5.1,-3.2 -6.4,-6.4c-0.5,-1.5 -2.1,-3.1 -3.6,-3.6c-3.2,-1.3 -5.1,-3.2 -6.4,-6.4c-0.5,-1.5 -2.1,-3.1 -3.6,-3.6c-3.2,-1.3 -5.1,-3.2 -6.4,-6.4c-0.5,-1.5 -2,-3 -3.3,-3.5c-1.4,-0.5 -2.7,-1.7 -3.1,-2.6c-0.8,-2.2 -0.8,-316.8 -0,-319c0.4,-0.9 1.7,-2.1 3.1,-2.6c1.3,-0.5 2.8,-2 3.3,-3.5c1.3,-3.2 3.2,-5.1 6.4,-6.4c1.5,-0.5 3.1,-2.1 3.6,-3.6c1.3,-3.2 3.2,-5.1 6.4,-6.4c1.5,-0.5 3.1,-2.1 3.6,-3.6c1.3,-3.2 3.2,-5.1 6.4,-6.4c1.5,-0.5 3.1,-2.1 3.6,-3.6c0.6,-1.4 1.6,-3.2 2.4,-4c0.8,-0.8 2.6,-1.8 4,-2.4c1.5,-0.5 3.1,-2.1 3.6,-3.6c0.6,-1.4 1.6,-3.2 2.4,-4c0.8,-0.8 2.6,-1.8 4,-2.4c1.5,-0.5 3.1,-2.1 3.6,-3.6c0.6,-1.4 1.6,-3.2 2.4,-4c0.8,-0.8 2.6,-1.8 4,-2.4c1.5,-0.5 3.1,-2.1 3.6,-3.6c0.6,-1.4 1.6,-3.2 2.4,-4c0.8,-0.8 2.6,-1.8 4,-2.4c1.5,-0.5 3,-2.1 3.6,-3.4c0.5,-1.3 1.5,-2.6 2.2,-2.9c1.9,-0.8 317.3,-0.8 319.3,-0.1Zm399.3,113.6c0.1,71.1 0.6,113.8 1.2,113.8c0.5,-0 1.2,1.6 1.6,3.5c0.8,4.4 2.8,6.2 4.9,4.5c0.8,-0.7 1.5,-1.8 1.5,-2.5c-0,-1.9 3.4,-5.3 6.4,-6.4c1.4,-0.6 3.1,-2.2 3.6,-3.7c1.3,-3.2 3.2,-5.1 6.4,-6.4c1.5,-0.5 3.1,-2.1 3.6,-3.6c1.3,-3.2 3.2,-5.1 6.4,-6.4c1.5,-0.5 3.1,-2.1 3.6,-3.6c1.3,-3.2 3.2,-5.1 6.4,-6.4c1.5,-0.5 3.1,-2.1 3.6,-3.6c1.3,-3.2 3.2,-5.1 6.4,-6.4c1.5,-0.5 3.1,-2.1 3.6,-3.6c1.3,-3.2 3.2,-5.1 6.4,-6.4c1.5,-0.5 3.1,-2.2 3.7,-3.6c1.8,-5 4.5,-6.4 11.9,-6.4c7.4,-0 10.1,1.4 11.9,6.4c0.6,1.4 2.2,3.1 3.7,3.6c3.2,1.3 5.1,3.2 6.4,6.4c0.5,1.5 2.1,3.1 3.6,3.6c3.2,1.3 5.1,3.2 6.4,6.4c0.5,1.5 2.1,3.1 3.6,3.6c3.2,1.3 5.1,3.2 6.4,6.4c0.5,1.5 2.1,3.1 3.6,3.6c3.2,1.3 5.1,3.2 6.4,6.4c0.5,1.5 2.1,3.1 3.6,3.6c3.2,1.3 5.1,3.2 6.4,6.4c0.5,1.5 2.2,3.1 3.6,3.7c3,1.1 6.4,4.5 6.4,6.4c-0,0.7 0.7,1.8 1.5,2.5c2.1,1.7 4.1,-0.1 4.9,-4.5c0.4,-1.9 1.1,-3.5 1.6,-3.5c0.6,-0 1.1,-42.7 1.2,-113.8l0.3,-113.7l157,-0l-0,477l-37.5,0.3c-20.6,0.1 -38.5,-0 -39.8,-0.3c-1.2,-0.3 -2.7,-1.7 -3.2,-3c-0.5,-1.4 -2.1,-3 -3.6,-3.5c-3.2,-1.3 -5.1,-3.2 -6.4,-6.4c-0.5,-1.5 -2.1,-3.1 -3.6,-3.6c-3.2,-1.3 -5.1,-3.2 -6.4,-6.4c-0.5,-1.5 -2.1,-3.1 -3.6,-3.6c-3.2,-1.3 -5.1,-3.2 -6.4,-6.4c-0.5,-1.5 -2.1,-3.1 -3.6,-3.6c-3.2,-1.3 -5.1,-3.2 -6.4,-6.4c-0.5,-1.5 -2.1,-3.1 -3.6,-3.6c-3.2,-1.3 -5.1,-3.2 -6.4,-6.4c-0.5,-1.5 -2.1,-3.1 -3.6,-3.6c-3.2,-1.3 -5.1,-3.2 -6.4,-6.4c-0.5,-1.5 -2.1,-3.1 -3.6,-3.6c-3.2,-1.3 -5.1,-3.2 -6.4,-6.4c-0.5,-1.5 -2.1,-3.1 -3.6,-3.6c-3.2,-1.3 -5.1,-3.2 -6.4,-6.4c-0.5,-1.5 -2.1,-3.1 -3.6,-3.6c-3.2,-1.3 -5.1,-3.2 -6.4,-6.4c-0.5,-1.5 -2.1,-3.1 -3.6,-3.6c-3.2,-1.3 -5.1,-3.2 -6.4,-6.4c-0.5,-1.5 -2.1,-3.1 -3.6,-3.6c-3.2,-1.3 -5.1,-3.2 -6.4,-6.4c-0.5,-1.5 -2.1,-3.1 -3.6,-3.6c-3.2,-1.3 -5.1,-3.2 -6.4,-6.4c-0.5,-1.5 -2.1,-3.1 -3.6,-3.6c-3.2,-1.3 -5.1,-3.2 -6.4,-6.4c-0.5,-1.5 -2.1,-3.1 -3.6,-3.6c-3.2,-1.3 -5.1,-3.2 -6.4,-6.4c-0.5,-1.5 -2.1,-3.1 -3.6,-3.6c-3.2,-1.3 -4.7,-2.7 -6.5,-6.5c-1.4,-2.9 -1.7,-3 -7.9,-3c-6.2,-0 -6.5,0.1 -7.9,3c-1.8,3.8 -3.3,5.2 -6.5,6.5c-1.5,0.5 -3.1,2.1 -3.6,3.6c-1.3,3.2 -3.2,5.1 -6.4,6.4c-1.5,0.5 -3.1,2.1 -3.6,3.6c-1.3,3.2 -3.2,5.1 -6.4,6.4c-1.5,0.5 -3.1,2.1 -3.6,3.6c-1.3,3.2 -3.2,5.1 -6.4,6.4c-1.5,0.5 -3.1,2.1 -3.6,3.6c-1.3,3.2 -3.2,5.1 -6.4,6.4c-1.5,0.5 -3.1,2.1 -3.6,3.6c-1.3,3.2 -3.2,5.1 -6.4,6.4c-1.5,0.5 -3.1,2.1 -3.6,3.6c-1.3,3.2 -3.2,5.1 -6.4,6.4c-1.5,0.5 -3.1,2.1 -3.6,3.6c-1.3,3.2 -3.2,5.1 -6.4,6.4c-1.5,0.5 -3.1,2.1 -3.6,3.6c-1.3,3.2 -3.2,5.1 -6.4,6.4c-1.5,0.5 -3.1,2.1 -3.6,3.6c-1.3,3.2 -3.2,5.1 -6.4,6.4c-1.5,0.5 -3.1,2.1 -3.6,3.6c-1.3,3.2 -3.2,5.1 -6.4,6.4c-1.5,0.5 -3.1,2.1 -3.6,3.6c-1.3,3.2 -3.2,5.1 -6.4,6.4c-1.5,0.5 -3.1,2.1 -3.6,3.6c-1.3,3.2 -3.2,5.1 -6.4,6.4c-1.5,0.5 -3.1,2.1 -3.6,3.6c-1.3,3.2 -3.2,5.1 -6.4,6.4c-1.5,0.5 -3.1,2.1 -3.6,3.6c-1.3,3.2 -3.2,5.1 -6.4,6.4c-1.5,0.5 -3.1,2.1 -3.6,3.5c-0.5,1.3 -2,2.7 -3.2,3c-1.3,0.3 -19.2,0.4 -39.8,0.3l-37.5,-0.3l-0.3,-237.5c-0.1,-130.6 -0,-238.1 0.3,-238.8c0.3,-1 16.6,-1.2 78.7,-1l78.3,0.3l0.3,113.7Zm880.7,-113.6c0.9,0.4 2.1,1.7 2.6,3.1c0.5,1.3 2,2.8 3.5,3.3c3.2,1.3 5.1,3.2 6.4,6.4c0.5,1.5 2.1,3.1 3.6,3.6c3.2,1.3 5.1,3.2 6.4,6.4c0.5,1.5 2.1,3.1 3.6,3.6c3.2,1.3 5.1,3.2 6.4,6.4c0.5,1.5 2.1,3.1 3.6,3.6c3.2,1.3 5.1,3.2 6.4,6.4c0.5,1.5 2.1,3.1 3.6,3.6c3.2,1.3 5.1,3.2 6.4,6.4c0.5,1.5 2.1,3.1 3.6,3.6c3.2,1.3 5.1,3.2 6.4,6.4c0.5,1.5 2.1,3.1 3.6,3.6c3.2,1.3 5.1,3.2 6.4,6.4c0.5,1.5 2,3 3.3,3.5c1.4,0.5 2.7,1.7 3.1,2.6c0.8,2.2 0.8,76.8 -0,79c-0.4,0.9 -1.7,2.1 -3.1,2.6c-1.3,0.5 -2.8,2 -3.3,3.5c-1.3,3.2 -3.2,5.1 -6.4,6.4c-1.5,0.5 -3.1,2.1 -3.6,3.6c-1.3,3.2 -3.2,5.1 -6.4,6.4c-1.5,0.5 -3.1,2.1 -3.6,3.6c-1.3,3.2 -3.2,5.1 -6.4,6.4c-1.5,0.5 -3.1,2.1 -3.6,3.6c-1.3,3.2 -3.2,5.1 -6.4,6.4c-1.5,0.5 -3.1,2.1 -3.6,3.6c-1.3,3.2 -3.2,5.1 -6.4,6.4c-1.5,0.5 -3.1,2.1 -3.6,3.6c-1.3,3.2 -3.2,5.1 -6.4,6.4c-1.5,0.5 -3.1,2.1 -3.6,3.6c-1.3,3.2 -3.2,5.1 -6.4,6.4c-1.5,0.5 -3,2 -3.5,3.3c-0.5,1.4 -1.7,2.7 -2.6,3.1c-0.9,0.3 -16.7,0.6 -35.1,0.6c-18.8,-0 -33.4,0.4 -33.4,0.9c-0,0.5 -1.5,1.2 -3.4,1.5c-4.4,0.8 -6.3,3 -4.6,5.1c0.7,0.8 1.8,1.5 2.5,1.5c1.9,-0 5.3,3.4 6.4,6.4c0.6,1.4 2.2,3.1 3.7,3.6c3.2,1.3 5.1,3.2 6.4,6.4c0.5,1.5 2.1,3.1 3.6,3.6c3.2,1.3 5.1,3.2 6.4,6.4c0.5,1.5 2.1,3.1 3.6,3.6c3.2,1.3 5.1,3.2 6.4,6.4c0.5,1.5 2.1,3.1 3.6,3.6c3.2,1.3 5.1,3.2 6.4,6.4c0.5,1.5 2.1,3.1 3.6,3.6c3.2,1.3 5.1,3.2 6.4,6.4c0.5,1.5 2.1,3.1 3.6,3.6c3.2,1.3 5.1,3.2 6.4,6.4c0.5,1.5 2.1,3.1 3.6,3.6c3.2,1.3 5.1,3.2 6.4,6.4c0.5,1.5 2.1,3.1 3.6,3.6c3.2,1.3 5.1,3.2 6.4,6.4c0.5,1.5 2.1,3.1 3.6,3.6c3.2,1.3 5.1,3.2 6.4,6.4c0.5,1.5 2.1,3.1 3.6,3.6c3.2,1.3 5.1,3.2 6.4,6.4c0.5,1.5 2.1,3.1 3.6,3.6c3.2,1.3 5.1,3.2 6.4,6.4c0.5,1.5 2.1,3.1 3.6,3.6c3.2,1.3 5.1,3.2 6.4,6.4c0.5,1.5 2.1,3.1 3.6,3.6c3.2,1.3 5.1,3.2 6.4,6.4c0.5,1.5 2.1,3.1 3.6,3.6c3.2,1.3 5.1,3.2 6.4,6.4c0.5,1.5 2.1,3.1 3.5,3.6c1.3,0.5 2.7,2 3,3.2c0.3,1.3 0.4,19.2 0.3,39.8l-0.3,37.5l-57.5,0.3c-31.6,0.1 -58.5,-0 -59.8,-0.3c-1.2,-0.3 -2.7,-1.7 -3.2,-3c-0.5,-1.4 -2.1,-3 -3.6,-3.5c-3.2,-1.3 -5.1,-3.2 -6.4,-6.4c-0.5,-1.5 -2.1,-3.1 -3.6,-3.6c-3.2,-1.3 -5.1,-3.2 -6.4,-6.4c-0.5,-1.5 -2.1,-3.1 -3.6,-3.6c-3.2,-1.3 -5.1,-3.2 -6.4,-6.4c-0.5,-1.5 -2.1,-3.1 -3.6,-3.6c-3.2,-1.3 -5.1,-3.2 -6.4,-6.4c-0.5,-1.5 -2.1,-3.1 -3.6,-3.6c-3.2,-1.3 -5.1,-3.2 -6.4,-6.4c-0.5,-1.5 -2.1,-3.1 -3.6,-3.6c-3.2,-1.3 -5.1,-3.2 -6.4,-6.4c-0.5,-1.5 -2.1,-3.1 -3.6,-3.6c-3.2,-1.3 -5.1,-3.2 -6.4,-6.4c-0.5,-1.5 -2.1,-3.1 -3.6,-3.6c-3.2,-1.3 -5.1,-3.2 -6.4,-6.4c-0.5,-1.5 -2.1,-3.1 -3.6,-3.6c-3.2,-1.3 -5.1,-3.2 -6.4,-6.4c-0.5,-1.5 -2.1,-3.1 -3.6,-3.6c-3.2,-1.3 -5.1,-3.2 -6.4,-6.4c-0.5,-1.5 -2.1,-3.1 -3.6,-3.6c-3.2,-1.3 -5.1,-3.2 -6.4,-6.4c-0.5,-1.5 -2.1,-3.1 -3.6,-3.6c-3.2,-1.3 -5.1,-3.2 -6.4,-6.4c-0.5,-1.5 -2.1,-3.1 -3.6,-3.6c-3.2,-1.3 -5.1,-3.2 -6.4,-6.4c-0.5,-1.5 -2.1,-3.1 -3.6,-3.6c-3.2,-1.3 -5.1,-3.2 -6.4,-6.4c-0.5,-1.5 -2.1,-3.1 -3.6,-3.6c-3.2,-1.3 -5.1,-3.2 -6.4,-6.4c-0.5,-1.5 -2.1,-3.1 -3.6,-3.6c-3.2,-1.3 -5.1,-3.2 -6.4,-6.4c-0.5,-1.5 -2.1,-3.1 -3.6,-3.6c-3.2,-1.3 -5.1,-3.2 -6.4,-6.4c-0.5,-1.5 -2.1,-3.1 -3.6,-3.6c-3.2,-1.3 -5.1,-3.2 -6.4,-6.4c-0.5,-1.5 -2.2,-3.1 -3.6,-3.7c-3,-1.1 -6.4,-4.5 -6.4,-6.4c-0,-0.7 -0.7,-1.8 -1.5,-2.5c-2.1,-1.7 -4.1,0.1 -4.9,4.5c-0.4,1.9 -1.1,3.5 -1.6,3.5c-0.6,-0 -1.1,35.4 -1.2,93.8l-0.3,93.7l-157,-0l-0.3,-237.5c-0.1,-130.6 -0,-238.1 0.3,-238.8c0.3,-0.9 40.9,-1.2 198.4,-1.2c108.9,-0 198.7,0.3 199.6,0.6Zm1359,-0.1l-0,77l-157.8,0.3c-156.1,0.2 -157.7,0.2 -159.7,2.2c-1.9,1.9 -2,3.4 -2,39c-0,35.7 0.1,37.1 2,39c2,2 3.3,2 119.4,2c64.6,-0 118.2,0.3 119.1,0.6c0.9,0.4 2.1,1.7 2.6,3.1c0.5,1.3 2,2.8 3.5,3.3c3.2,1.3 5.1,3.2 6.4,6.4c0.5,1.5 2.1,3.1 3.6,3.6c3.2,1.3 5.1,3.2 6.4,6.4c0.5,1.5 2.1,3.1 3.6,3.6c3.2,1.3 5.1,3.2 6.4,6.4c0.5,1.5 2.1,3.1 3.6,3.6c3.2,1.3 5.1,3.2 6.4,6.4c0.5,1.5 2.1,3.1 3.6,3.6c3.2,1.3 5.1,3.2 6.4,6.4c0.5,1.5 2.1,3.1 3.6,3.6c3.2,1.3 5.1,3.2 6.4,6.4c0.5,1.5 2.1,3.1 3.6,3.6c3.2,1.3 5.1,3.2 6.4,6.4c0.5,1.5 2,3 3.3,3.5c1.4,0.5 2.7,1.7 3.1,2.6c0.8,2.2 0.8,156.8 -0,159c-0.4,0.9 -1.7,2.1 -3.1,2.6c-1.3,0.5 -2.8,2 -3.3,3.5c-1.3,3.2 -3.2,5.1 -6.4,6.4c-1.5,0.5 -3.1,2.1 -3.6,3.6c-1.3,3.2 -3.2,5.1 -6.4,6.4c-1.5,0.5 -3.1,2.1 -3.6,3.6c-1.3,3.2 -3.2,5.1 -6.4,6.4c-1.5,0.5 -3.1,2.1 -3.6,3.6c-1.3,3.2 -3.2,5.1 -6.4,6.4c-1.5,0.5 -3.1,2.1 -3.6,3.6c-1.3,3.2 -3.2,5.1 -6.4,6.4c-1.5,0.5 -3.1,2.1 -3.6,3.6c-1.3,3.2 -3.2,5.1 -6.4,6.4c-1.5,0.5 -3.1,2.1 -3.6,3.6c-1.3,3.2 -3.2,5.1 -6.4,6.4c-1.5,0.5 -3.1,2.1 -3.6,3.5c-0.5,1.3 -2,2.7 -3.2,3c-1.3,0.3 -91.2,0.4 -199.8,0.3l-197.5,-0.3l-0,-77l157.8,-0.3c156.1,-0.2 157.7,-0.2 159.7,-2.2c2,-2 2,-3.4 2,-79c-0,-75.7 -0,-77 -2,-79c-2,-2 -3.3,-2 -119.4,-2c-64.6,-0 -118.2,-0.3 -119.1,-0.6c-0.9,-0.4 -2.1,-1.7 -2.6,-3.1c-0.5,-1.3 -2,-2.8 -3.5,-3.3c-3.2,-1.3 -5.1,-3.2 -6.4,-6.4c-0.5,-1.5 -2.1,-3.1 -3.6,-3.6c-3.2,-1.3 -5.1,-3.2 -6.4,-6.4c-0.5,-1.5 -2.1,-3.1 -3.6,-3.6c-3.2,-1.3 -5.1,-3.2 -6.4,-6.4c-0.5,-1.5 -2.1,-3.1 -3.6,-3.6c-3.2,-1.3 -5.1,-3.2 -6.4,-6.4c-0.5,-1.5 -2.1,-3.1 -3.6,-3.6c-3.2,-1.3 -5.1,-3.2 -6.4,-6.4c-0.5,-1.5 -2.1,-3.1 -3.6,-3.6c-3.2,-1.3 -5.1,-3.2 -6.4,-6.4c-0.5,-1.5 -2.1,-3.1 -3.6,-3.6c-3.2,-1.3 -5.1,-3.2 -6.4,-6.4c-0.5,-1.5 -2,-3 -3.3,-3.5c-1.4,-0.5 -2.7,-1.7 -3.1,-2.6c-0.8,-2.2 -0.8,-76.8 -0,-79c0.4,-0.9 1.7,-2.1 3.1,-2.6c1.3,-0.5 2.8,-2 3.3,-3.5c1.3,-3.2 3.2,-5.1 6.4,-6.4c1.5,-0.5 3.1,-2.1 3.6,-3.6c1.3,-3.2 3.2,-5.1 6.4,-6.4c1.5,-0.5 3.1,-2.1 3.6,-3.6c1.3,-3.2 3.2,-5.1 6.4,-6.4c1.5,-0.5 3.1,-2.1 3.6,-3.6c1.3,-3.2 3.2,-5.1 6.4,-6.4c1.5,-0.5 3.1,-2.1 3.6,-3.6c1.3,-3.2 3.2,-5.1 6.4,-6.4c1.5,-0.5 3.1,-2.1 3.6,-3.6c1.3,-3.2 3.2,-5.1 6.4,-6.4c1.5,-0.5 3.1,-2.1 3.6,-3.6c1.3,-3.2 3.2,-5.1 6.4,-6.4c1.5,-0.5 3,-2.1 3.6,-3.4c0.5,-1.3 1.5,-2.6 2.2,-2.9c0.7,-0.3 90.6,-0.5 199.8,-0.4l198.5,0.2Zm-3519.7,197.8c0.2,196 0.2,197.7 2.2,199.7c2,2 3.6,2 159.7,2.2l157.8,0.3l-0,77l-477,-0l-0.3,-237.5c-0.1,-130.6 -0,-238.1 0.3,-238.8c0.3,-1 16.6,-1.2 78.7,-1l78.3,0.3l0.3,197.8Zm2879.7,-197.8l-0,77l-157.8,0.3c-156.1,0.2 -157.7,0.2 -159.7,2.2c-1.9,1.9 -2,3.4 -2,39c-0,35.6 0.1,37.1 2,39c1.9,1.9 3.6,2 79.7,2.2l77.8,0.3l-0,77l-77.8,0.3c-76.1,0.2 -77.8,0.3 -79.7,2.2c-2,2 -2,3.4 -2,79c-0,75.6 -0,77 2,79c2,2 3.6,2 159.7,2.2l157.8,0.3l-0,77l-477,-0l-0.3,-237.5c-0.1,-130.6 -0,-238.1 0.3,-238.8c0.3,-1 48.6,-1.2 238.7,-1l238.3,0.3Zm-2237.7,79.6c-1.7,1.8 -1.8,10.8 -1.8,158.9c-0,155.7 -0,157 2,159c2,2 3.3,2 79,2c75.7,-0 77,-0 79,-2c2,-2 2,-3.3 2,-159c-0,-155.7 -0,-157 -2,-159c-2,-2 -3.3,-2 -79.2,-1.9c-74.8,0.1 -77.4,0.1 -79,2Zm1280,-0c-1.7,1.7 -1.8,5.1 -1.8,38.9c-0,35.7 0.1,37.1 2,39c2,2 3.3,2 79,2c75.7,-0 77,-0 79,-2c1.9,-1.9 2,-3.3 2,-39c-0,-35.7 -0.1,-37.1 -2,-39c-2,-2 -3.3,-2 -79.2,-1.9c-74.8,0.1 -77.4,0.1 -79,2Zm-296.3,-161c321.8,0.1 -1864.5,-0.1 -1864.5,-0.1l164.8,0.1c90.6,0.1 680,0.1 795.2,0.1c115.2,-0 904.5,-0.1 904.5,-0.1Z" style="fill:#222121;"/>
        <path d="M0,0l0,640l1486,-0l0.1,-3.3c-0,-2.6 1,-4 4.9,-7.2c2.7,-2.2 4.9,-4.5 5,-5c0.1,-0.6 2.3,-2.8 5,-5c2.7,-2.2 4.9,-4.5 5,-5c0.1,-0.6 2.3,-2.8 5,-5c2.7,-2.2 4.9,-4.5 5,-5c0.1,-0.6 2.3,-2.8 5,-5c2.7,-2.2 4.9,-4.5 5,-5c0.1,-0.6 2.3,-2.8 5,-5c2.7,-2.2 4.9,-4.5 5,-5c0.1,-0.6 2.3,-2.8 5,-5c2.7,-2.2 4.9,-4.5 5,-5c0.1,-0.6 2.3,-2.8 5,-5c2.7,-2.2 4.9,-4.5 5,-5c0.1,-0.6 2.3,-2.8 5,-5c2.7,-2.2 4.9,-4.5 5,-5c0.1,-0.6 2.3,-2.8 5,-5c2.7,-2.2 4.9,-4.5 5,-5c0.1,-0.6 2.3,-2.8 5,-5c2.7,-2.2 4.9,-4.3 4.9,-4.7c0.1,-0.4 2,-2.5 4.3,-4.7c3.9,-3.7 4.8,-4 9.8,-4c5,0 5.9,0.3 9.8,4c2.3,2.2 4.2,4.3 4.3,4.7c-0,0.4 2.2,2.5 4.9,4.7c2.7,2.2 4.9,4.4 5,5c0.1,0.5 2.3,2.8 5,5c2.7,2.2 4.9,4.4 5,5c0.1,0.5 2.3,2.8 5,5c2.7,2.2 4.9,4.4 5,5c0.1,0.5 2.3,2.8 5,5c2.7,2.2 4.9,4.4 5,5c0.1,0.5 2.3,2.8 5,5c2.7,2.2 4.9,4.4 5,5c0.1,0.5 2.3,2.8 5,5c2.7,2.2 4.9,4.4 5,5c0.1,0.5 2.3,2.8 5,5c2.7,2.2 4.9,4.4 5,5c0.1,0.5 2.3,2.8 5,5c2.7,2.2 4.9,4.4 5,5c0.1,0.5 2.3,2.8 5,5c2.7,2.2 4.9,4.4 5,5c0.1,0.5 2.3,2.8 5,5c3.9,3.2 4.9,4.6 4.9,7.2l0.1,3.3l2012,-0l0.1,-3.3c-0,-2.6 1,-4 4.9,-7.2c2.7,-2.2 4.9,-4.5 5,-5c0.1,-0.6 2.3,-2.8 5,-5c2.7,-2.2 4.9,-4.5 5,-5c0.1,-0.6 2.3,-2.8 5,-5c2.7,-2.2 4.9,-4.5 5,-5c0.1,-0.6 2.3,-2.8 5,-5c2.7,-2.2 4.9,-4.5 5,-5c0.1,-0.6 2.3,-2.8 5,-5c2.7,-2.2 4.9,-4.5 5,-5c0.1,-0.6 2.3,-2.8 5,-5c2.7,-2.2 4.9,-4.5 5,-5c0.1,-0.6 2.3,-2.8 5,-5c2.7,-2.2 4.9,-4.5 5,-5c0.1,-0.6 2.3,-2.8 5,-5c2.7,-2.2 4.9,-4.5 5,-5c0.1,-0.6 2.3,-2.8 5,-5c2.7,-2.2 4.9,-4.5 5,-5c0.1,-0.6 2.3,-2.8 5,-5c2.7,-2.2 4.9,-4.5 5,-5c0.1,-0.6 2.3,-2.8 5,-5c2.7,-2.2 4.9,-4.4 4.9,-4.9c0.1,-0.5 0.9,-1.8 1.9,-2.9c1.6,-1.8 1.7,-11.1 2,-162.1c0.1,-88 0.3,-205 0.5,-259.9l0.2,-99.7l-265,0.1c-145.7,0.1 -264.2,0.3 -263.2,0.6c3.4,0.9 1.9,5.5 -3.3,9.8c-2.7,2.2 -4.9,4.4 -5,5c-0.1,0.5 -2.3,2.8 -5,5c-2.7,2.2 -4.9,4.4 -5,5c-0.1,0.5 -2.3,2.8 -5,5c-2.7,2.2 -4.9,4.4 -5,5c-0.1,0.5 -2.3,2.8 -5,5c-2.7,2.2 -4.9,4.4 -5,5c-0.1,0.5 -2.3,2.8 -5,5c-2.7,2.2 -4.9,4.4 -5,5c-0.1,0.5 -2.3,2.8 -5,5c-2.7,2.2 -4.9,4.4 -5,5c-0.1,0.5 -2.3,2.8 -5,5c-2.7,2.2 -4.9,4.4 -5,5c-0.1,0.5 -2.3,2.8 -5,5c-2.7,2.2 -4.9,4.4 -5,5c-0.1,0.5 -2.3,2.8 -5,5c-2.7,2.2 -4.9,4.4 -5,5c-0.1,0.5 -2.3,2.8 -5,5c-2.7,2.2 -4.9,4.4 -5,5c-0.1,0.5 -2.2,2.8 -4.6,4.9l-4.5,3.9l-4.4,-4.4l-0,-109.9l-641,0l-0,109.9l-4.4,4.4l-4.5,-3.9c-2.4,-2.1 -4.5,-4.4 -4.6,-4.9c-0.1,-0.6 -2.3,-2.8 -5,-5c-2.7,-2.2 -4.9,-4.5 -5,-5c-0.1,-0.6 -2.3,-2.8 -5,-5c-2.7,-2.2 -4.9,-4.5 -5,-5c-0.1,-0.6 -2.3,-2.8 -5,-5c-2.7,-2.2 -4.9,-4.5 -5,-5c-0.1,-0.6 -2.3,-2.8 -5,-5c-2.7,-2.2 -4.9,-4.5 -5,-5c-0.1,-0.6 -2.3,-2.8 -5,-5c-2.7,-2.2 -4.9,-4.5 -5,-5c-0.1,-0.6 -2.3,-2.8 -5,-5c-2.7,-2.2 -4.9,-4.5 -5,-5c-0.1,-0.6 -2.3,-2.8 -5,-5c-2.7,-2.2 -4.9,-4.5 -5,-5c-0.1,-0.6 -2.3,-2.8 -5,-5c-2.7,-2.2 -4.9,-4.5 -5,-5c-0.1,-0.6 -2.3,-2.8 -5,-5c-2.7,-2.2 -4.9,-4.5 -5,-5c-0.1,-0.6 -2.3,-2.8 -5,-5c-5.2,-4.3 -6.7,-8.9 -3.3,-9.8c1,-0.3 -261.4,-0.5 -583.2,-0.6l-585,-0.1l-0,109.9l-4.4,4.4l-4.5,-3.9c-2.4,-2.1 -4.5,-4.4 -4.6,-4.9c-0.1,-0.6 -2.3,-2.8 -5,-5c-2.7,-2.2 -4.9,-4.5 -5,-5c-0.1,-0.6 -2.3,-2.8 -5,-5c-2.7,-2.2 -4.9,-4.5 -5,-5c-0.1,-0.6 -2.3,-2.8 -5,-5c-2.7,-2.2 -4.9,-4.5 -5,-5c-0.1,-0.6 -2.3,-2.8 -5,-5c-2.7,-2.2 -4.9,-4.5 -5,-5c-0.1,-0.6 -2.3,-2.8 -5,-5c-2.7,-2.2 -4.9,-4.5 -5,-5c-0.1,-0.6 -2.3,-2.8 -5,-5c-2.7,-2.2 -4.9,-4.5 -5,-5c-0.1,-0.6 -2.3,-2.8 -5,-5c-2.7,-2.2 -4.9,-4.5 -5,-5c-0.1,-0.6 -2.3,-2.8 -5,-5c-2.7,-2.2 -4.9,-4.5 -5,-5c-0.1,-0.6 -2.3,-2.8 -5,-5c-2.7,-2.2 -4.9,-4.5 -5,-5c-0.1,-0.6 -2.3,-2.8 -5,-5c-5.2,-4.3 -6.7,-8.9 -3.2,-9.8c0.9,-0.3 -92.6,-0.5 -207.8,-0.5c-115.2,0 -208.7,0.2 -207.7,0.5c3.4,0.9 1.9,5.5 -3.3,9.8c-2.7,2.2 -4.9,4.4 -5,5c-0.1,0.5 -2.3,2.8 -5,5c-2.7,2.2 -4.9,4.4 -5,5c-0.1,0.5 -2.3,2.8 -5,5c-2.7,2.2 -4.9,4.4 -5,5c-0.1,0.5 -2.3,2.8 -5,5c-2.7,2.2 -4.9,4.4 -5,5c-0.1,0.5 -2.3,2.8 -5,5c-2.7,2.2 -4.9,4.4 -5,5c-0.1,0.5 -2.3,2.8 -5,5c-2.7,2.2 -4.9,4.4 -5,5c-0.1,0.5 -2.3,2.8 -5,5c-2.7,2.2 -4.9,4.4 -5,5c-0.1,0.5 -2.3,2.8 -5,5c-2.7,2.2 -4.9,4.4 -5,5c-0.1,0.5 -2.3,2.8 -5,5c-2.7,2.2 -4.9,4.4 -5,5c-0.1,0.5 -2.3,2.8 -5,5c-2.7,2.2 -4.9,4.4 -5,5c-0.1,0.5 -2.3,2.8 -5,5c-2.7,2.2 -4.9,4.4 -4.9,4.9c-0.1,0.5 -0.9,1.8 -1.8,2.9c-1.7,1.8 -1.8,10.3 -2.3,140.7c-0.3,76.4 -0.9,139.2 -1.3,139.7c-1.1,1.1 -156.3,1.1 -157.4,-0c-0.4,-0.5 -1,-54.3 -1.3,-119.7c-0.5,-111.3 -0.6,-118.9 -2.2,-120.7c-1,-1.1 -1.8,-2.4 -1.9,-2.9c-0,-0.5 -2.2,-2.7 -4.9,-4.9c-2.7,-2.2 -4.9,-4.5 -5,-5c-0.1,-0.6 -2.3,-2.8 -5,-5c-2.7,-2.2 -4.9,-4.5 -5,-5c-0.1,-0.6 -2.3,-2.8 -5,-5c-2.7,-2.2 -4.9,-4.5 -5,-5c-0.1,-0.6 -2.3,-2.8 -5,-5c-2.7,-2.2 -4.9,-4.5 -5,-5c-0.1,-0.6 -2.3,-2.8 -5,-5c-2.7,-2.2 -4.9,-4.5 -5,-5c-0.1,-0.6 -2.3,-2.8 -5,-5c-2.7,-2.2 -4.9,-4.5 -5,-5c-0.1,-0.6 -2.3,-2.8 -5,-5c-2.7,-2.2 -4.9,-4.5 -5,-5c-0.1,-0.6 -2.3,-2.8 -5,-5c-2.7,-2.2 -4.9,-4.5 -5,-5c-0.1,-0.6 -2.3,-2.8 -5,-5c-2.7,-2.2 -4.9,-4.5 -5,-5c-0.1,-0.6 -2.3,-2.8 -5,-5c-2.7,-2.2 -4.9,-4.5 -5,-5c-0.1,-0.6 -2.3,-2.8 -5,-5c-2.7,-2.2 -4.9,-4.5 -5,-5c-0.1,-0.6 -2.3,-2.8 -5,-5c-2.7,-2.2 -4.9,-4.5 -5,-5c-0.1,-0.6 -2.3,-2.8 -5,-5c-2.7,-2.2 -4.9,-4.5 -5,-5c-0.1,-0.6 -2.3,-2.8 -5,-5c-2.7,-2.2 -4.9,-4.5 -5,-5c-0.1,-0.6 -2.3,-2.8 -5,-5c-5.2,-4.3 -6.7,-8.9 -3.2,-9.8c0.9,-0.3 -72.4,-0.5 -163,-0.6l-164.8,-0.1Zm1119.5,81.6c0.9,0.4 2.1,1.7 2.6,3.1c0.5,1.3 2,2.8 3.5,3.3c3.2,1.3 5.1,3.2 6.4,6.4c0.5,1.5 2.1,3.1 3.6,3.6c3.2,1.3 5.1,3.2 6.4,6.4c0.5,1.5 2.1,3.1 3.6,3.6c3.2,1.3 5.1,3.2 6.4,6.4c0.5,1.5 2.1,3.1 3.6,3.6c3.2,1.3 5.1,3.2 6.4,6.4c0.5,1.5 2.1,3.1 3.6,3.6c3.2,1.3 5.1,3.2 6.4,6.4c0.5,1.5 2.1,3.1 3.6,3.6c3.2,1.3 5.1,3.2 6.4,6.4c0.5,1.5 2.1,3.1 3.6,3.6c3.2,1.3 5.1,3.2 6.4,6.4c0.5,1.5 2,3 3.3,3.5c1.4,0.5 2.7,1.7 3.1,2.6c0.8,2.2 0.8,316.8 -0,319c-0.4,0.9 -1.7,2.1 -3.1,2.6c-1.3,0.5 -2.8,2 -3.3,3.5c-1.3,3.2 -3.2,5.1 -6.4,6.4c-1.5,0.5 -3.1,2.1 -3.6,3.6c-1.3,3.2 -3.2,5.1 -6.4,6.4c-1.5,0.5 -3.1,2.1 -3.6,3.6c-1.3,3.2 -3.2,5.1 -6.4,6.4c-1.5,0.5 -3.1,2.1 -3.6,3.6c-1.3,3.2 -3.2,5.1 -6.4,6.4c-1.5,0.5 -3.1,2.1 -3.6,3.6c-1.3,3.2 -3.2,5.1 -6.4,6.4c-1.5,0.5 -3.1,2.1 -3.6,3.6c-1.3,3.2 -3.2,5.1 -6.4,6.4c-1.5,0.5 -3.1,2.1 -3.6,3.6c-1.3,3.2 -3.2,5.1 -6.4,6.4c-1.5,0.5 -3,2 -3.5,3.3c-0.5,1.4 -1.7,2.7 -2.6,3.1c-2.2,0.8 -316.8,0.8 -319,-0c-0.9,-0.4 -2.1,-1.7 -2.6,-3.1c-0.5,-1.3 -2,-2.8 -3.5,-3.3c-3.2,-1.3 -5.1,-3.2 -6.4,-6.4c-0.5,-1.5 -2.1,-3.1 -3.6,-3.6c-3.2,-1.3 -5.1,-3.2 -6.4,-6.4c-0.5,-1.5 -2.1,-3.1 -3.6,-3.6c-3.2,-1.3 -5.1,-3.2 -6.4,-6.4c-0.5,-1.5 -2.1,-3.1 -3.6,-3.6c-3.2,-1.3 -5.1,-3.2 -6.4,-6.4c-0.5,-1.5 -2.1,-3.1 -3.6,-3.6c-3.2,-1.3 -5.1,-3.2 -6.4,-6.4c-0.5,-1.5 -2.1,-3.1 -3.6,-3.6c-3.2,-1.3 -5.1,-3.2 -6.4,-6.4c-0.5,-1.5 -2.1,-3.1 -3.6,-3.6c-3.2,-1.3 -5.1,-3.2 -6.4,-6.4c-0.5,-1.5 -2,-3 -3.3,-3.5c-1.4,-0.5 -2.7,-1.7 -3.1,-2.6c-0.8,-2.2 -0.8,-316.8 -0,-319c0.4,-0.9 1.7,-2.1 3.1,-2.6c1.3,-0.5 2.8,-2 3.3,-3.5c1.3,-3.2 3.2,-5.1 6.4,-6.4c1.5,-0.5 3.1,-2.1 3.6,-3.6c1.3,-3.2 3.2,-5.1 6.4,-6.4c1.5,-0.5 3.1,-2.1 3.6,-3.6c1.3,-3.2 3.2,-5.1 6.4,-6.4c1.5,-0.5 3.1,-2.1 3.6,-3.6c0.6,-1.4 1.6,-3.2 2.4,-4c0.8,-0.8 2.6,-1.8 4,-2.4c1.5,-0.5 3.1,-2.1 3.6,-3.6c0.6,-1.4 1.6,-3.2 2.4,-4c0.8,-0.8 2.6,-1.8 4,-2.4c1.5,-0.5 3.1,-2.1 3.6,-3.6c0.6,-1.4 1.6,-3.2 2.4,-4c0.8,-0.8 2.6,-1.8 4,-2.4c1.5,-0.5 3.1,-2.1 3.6,-3.6c0.6,-1.4 1.6,-3.2 2.4,-4c0.8,-0.8 2.6,-1.8 4,-2.4c1.5,-0.5 3,-2.1 3.6,-3.4c0.5,-1.3 1.5,-2.6 2.2,-2.9c1.9,-0.8 317.3,-0.8 319.3,-0.1Zm399.3,113.6c0.1,71.1 0.6,113.8 1.2,113.8c0.5,-0 1.2,1.6 1.6,3.5c0.8,4.4 2.8,6.2 4.9,4.5c0.8,-0.7 1.5,-1.8 1.5,-2.5c-0,-1.9 3.4,-5.3 6.4,-6.4c1.4,-0.6 3.1,-2.2 3.6,-3.7c1.3,-3.2 3.2,-5.1 6.4,-6.4c1.5,-0.5 3.1,-2.1 3.6,-3.6c1.3,-3.2 3.2,-5.1 6.4,-6.4c1.5,-0.5 3.1,-2.1 3.6,-3.6c1.3,-3.2 3.2,-5.1 6.4,-6.4c1.5,-0.5 3.1,-2.1 3.6,-3.6c1.3,-3.2 3.2,-5.1 6.4,-6.4c1.5,-0.5 3.1,-2.1 3.6,-3.6c1.3,-3.2 3.2,-5.1 6.4,-6.4c1.5,-0.5 3.1,-2.2 3.7,-3.6c1.8,-5 4.5,-6.4 11.9,-6.4c7.4,-0 10.1,1.4 11.9,6.4c0.6,1.4 2.2,3.1 3.7,3.6c3.2,1.3 5.1,3.2 6.4,6.4c0.5,1.5 2.1,3.1 3.6,3.6c3.2,1.3 5.1,3.2 6.4,6.4c0.5,1.5 2.1,3.1 3.6,3.6c3.2,1.3 5.1,3.2 6.4,6.4c0.5,1.5 2.1,3.1 3.6,3.6c3.2,1.3 5.1,3.2 6.4,6.4c0.5,1.5 2.1,3.1 3.6,3.6c3.2,1.3 5.1,3.2 6.4,6.4c0.5,1.5 2.2,3.1 3.6,3.7c3,1.1 6.4,4.5 6.4,6.4c-0,0.7 0.7,1.8 1.5,2.5c2.1,1.7 4.1,-0.1 4.9,-4.5c0.4,-1.9 1.1,-3.5 1.6,-3.5c0.6,-0 1.1,-42.7 1.2,-113.8l0.3,-113.7l157,-0l-0,477l-37.5,0.3c-20.6,0.1 -38.5,-0 -39.8,-0.3c-1.2,-0.3 -2.7,-1.7 -3.2,-3c-0.5,-1.4 -2.1,-3 -3.6,-3.5c-3.2,-1.3 -5.1,-3.2 -6.4,-6.4c-0.5,-1.5 -2.1,-3.1 -3.6,-3.6c-3.2,-1.3 -5.1,-3.2 -6.4,-6.4c-0.5,-1.5 -2.1,-3.1 -3.6,-3.6c-3.2,-1.3 -5.1,-3.2 -6.4,-6.4c-0.5,-1.5 -2.1,-3.1 -3.6,-3.6c-3.2,-1.3 -5.1,-3.2 -6.4,-6.4c-0.5,-1.5 -2.1,-3.1 -3.6,-3.6c-3.2,-1.3 -5.1,-3.2 -6.4,-6.4c-0.5,-1.5 -2.1,-3.1 -3.6,-3.6c-3.2,-1.3 -5.1,-3.2 -6.4,-6.4c-0.5,-1.5 -2.1,-3.1 -3.6,-3.6c-3.2,-1.3 -5.1,-3.2 -6.4,-6.4c-0.5,-1.5 -2.1,-3.1 -3.6,-3.6c-3.2,-1.3 -5.1,-3.2 -6.4,-6.4c-0.5,-1.5 -2.1,-3.1 -3.6,-3.6c-3.2,-1.3 -5.1,-3.2 -6.4,-6.4c-0.5,-1.5 -2.1,-3.1 -3.6,-3.6c-3.2,-1.3 -5.1,-3.2 -6.4,-6.4c-0.5,-1.5 -2.1,-3.1 -3.6,-3.6c-3.2,-1.3 -5.1,-3.2 -6.4,-6.4c-0.5,-1.5 -2.1,-3.1 -3.6,-3.6c-3.2,-1.3 -5.1,-3.2 -6.4,-6.4c-0.5,-1.5 -2.1,-3.1 -3.6,-3.6c-3.2,-1.3 -5.1,-3.2 -6.4,-6.4c-0.5,-1.5 -2.1,-3.1 -3.6,-3.6c-3.2,-1.3 -5.1,-3.2 -6.4,-6.4c-0.5,-1.5 -2.1,-3.1 -3.6,-3.6c-3.2,-1.3 -4.7,-2.7 -6.5,-6.5c-1.4,-2.9 -1.7,-3 -7.9,-3c-6.2,-0 -6.5,0.1 -7.9,3c-1.8,3.8 -3.3,5.2 -6.5,6.5c-1.5,0.5 -3.1,2.1 -3.6,3.6c-1.3,3.2 -3.2,5.1 -6.4,6.4c-1.5,0.5 -3.1,2.1 -3.6,3.6c-1.3,3.2 -3.2,5.1 -6.4,6.4c-1.5,0.5 -3.1,2.1 -3.6,3.6c-1.3,3.2 -3.2,5.1 -6.4,6.4c-1.5,0.5 -3.1,2.1 -3.6,3.6c-1.3,3.2 -3.2,5.1 -6.4,6.4c-1.5,0.5 -3.1,2.1 -3.6,3.6c-1.3,3.2 -3.2,5.1 -6.4,6.4c-1.5,0.5 -3.1,2.1 -3.6,3.6c-1.3,3.2 -3.2,5.1 -6.4,6.4c-1.5,0.5 -3.1,2.1 -3.6,3.6c-1.3,3.2 -3.2,5.1 -6.4,6.4c-1.5,0.5 -3.1,2.1 -3.6,3.6c-1.3,3.2 -3.2,5.1 -6.4,6.4c-1.5,0.5 -3.1,2.1 -3.6,3.6c-1.3,3.2 -3.2,5.1 -6.4,6.4c-1.5,0.5 -3.1,2.1 -3.6,3.6c-1.3,3.2 -3.2,5.1 -6.4,6.4c-1.5,0.5 -3.1,2.1 -3.6,3.6c-1.3,3.2 -3.2,5.1 -6.4,6.4c-1.5,0.5 -3.1,2.1 -3.6,3.6c-1.3,3.2 -3.2,5.1 -6.4,6.4c-1.5,0.5 -3.1,2.1 -3.6,3.6c-1.3,3.2 -3.2,5.1 -6.4,6.4c-1.5,0.5 -3.1,2.1 -3.6,3.6c-1.3,3.2 -3.2,5.1 -6.4,6.4c-1.5,0.5 -3.1,2.1 -3.6,3.5c-0.5,1.3 -2,2.7 -3.2,3c-1.3,0.3 -19.2,0.4 -39.8,0.3l-37.5,-0.3l-0.3,-237.5c-0.1,-130.6 -0,-238.1 0.3,-238.8c0.3,-1 16.6,-1.2 78.7,-1l78.3,0.3l0.3,113.7Zm880.7,-113.6c0.9,0.4 2.1,1.7 2.6,3.1c0.5,1.3 2,2.8 3.5,3.3c3.2,1.3 5.1,3.2 6.4,6.4c0.5,1.5 2.1,3.1 3.6,3.6c3.2,1.3 5.1,3.2 6.4,6.4c0.5,1.5 2.1,3.1 3.6,3.6c3.2,1.3 5.1,3.2 6.4,6.4c0.5,1.5 2.1,3.1 3.6,3.6c3.2,1.3 5.1,3.2 6.4,6.4c0.5,1.5 2.1,3.1 3.6,3.6c3.2,1.3 5.1,3.2 6.4,6.4c0.5,1.5 2.1,3.1 3.6,3.6c3.2,1.3 5.1,3.2 6.4,6.4c0.5,1.5 2.1,3.1 3.6,3.6c3.2,1.3 5.1,3.2 6.4,6.4c0.5,1.5 2,3 3.3,3.5c1.4,0.5 2.7,1.7 3.1,2.6c0.8,2.2 0.8,76.8 -0,79c-0.4,0.9 -1.7,2.1 -3.1,2.6c-1.3,0.5 -2.8,2 -3.3,3.5c-1.3,3.2 -3.2,5.1 -6.4,6.4c-1.5,0.5 -3.1,2.1 -3.6,3.6c-1.3,3.2 -3.2,5.1 -6.4,6.4c-1.5,0.5 -3.1,2.1 -3.6,3.6c-1.3,3.2 -3.2,5.1 -6.4,6.4c-1.5,0.5 -3.1,2.1 -3.6,3.6c-1.3,3.2 -3.2,5.1 -6.4,6.4c-1.5,0.5 -3.1,2.1 -3.6,3.6c-1.3,3.2 -3.2,5.1 -6.4,6.4c-1.5,0.5 -3.1,2.1 -3.6,3.6c-1.3,3.2 -3.2,5.1 -6.4,6.4c-1.5,0.5 -3.1,2.1 -3.6,3.6c-1.3,3.2 -3.2,5.1 -6.4,6.4c-1.5,0.5 -3,2 -3.5,3.3c-0.5,1.4 -1.7,2.7 -2.6,3.1c-0.9,0.3 -16.7,0.6 -35.1,0.6c-18.8,-0 -33.4,0.4 -33.4,0.9c-0,0.5 -1.5,1.2 -3.4,1.5c-4.4,0.8 -6.3,3 -4.6,5.1c0.7,0.8 1.8,1.5 2.5,1.5c1.9,-0 5.3,3.4 6.4,6.4c0.6,1.4 2.2,3.1 3.7,3.6c3.2,1.3 5.1,3.2 6.4,6.4c0.5,1.5 2.1,3.1 3.6,3.6c3.2,1.3 5.1,3.2 6.4,6.4c0.5,1.5 2.1,3.1 3.6,3.6c3.2,1.3 5.1,3.2 6.4,6.4c0.5,1.5 2.1,3.1 3.6,3.6c3.2,1.3 5.1,3.2 6.4,6.4c0.5,1.5 2.1,3.1 3.6,3.6c3.2,1.3 5.1,3.2 6.4,6.4c0.5,1.5 2.1,3.1 3.6,3.6c3.2,1.3 5.1,3.2 6.4,6.4c0.5,1.5 2.1,3.1 3.6,3.6c3.2,1.3 5.1,3.2 6.4,6.4c0.5,1.5 2.1,3.1 3.6,3.6c3.2,1.3 5.1,3.2 6.4,6.4c0.5,1.5 2.1,3.1 3.6,3.6c3.2,1.3 5.1,3.2 6.4,6.4c0.5,1.5 2.1,3.1 3.6,3.6c3.2,1.3 5.1,3.2 6.4,6.4c0.5,1.5 2.1,3.1 3.6,3.6c3.2,1.3 5.1,3.2 6.4,6.4c0.5,1.5 2.1,3.1 3.6,3.6c3.2,1.3 5.1,3.2 6.4,6.4c0.5,1.5 2.1,3.1 3.6,3.6c3.2,1.3 5.1,3.2 6.4,6.4c0.5,1.5 2.1,3.1 3.6,3.6c3.2,1.3 5.1,3.2 6.4,6.4c0.5,1.5 2.1,3.1 3.5,3.6c1.3,0.5 2.7,2 3,3.2c0.3,1.3 0.4,19.2 0.3,39.8l-0.3,37.5l-57.5,0.3c-31.6,0.1 -58.5,-0 -59.8,-0.3c-1.2,-0.3 -2.7,-1.7 -3.2,-3c-0.5,-1.4 -2.1,-3 -3.6,-3.5c-3.2,-1.3 -5.1,-3.2 -6.4,-6.4c-0.5,-1.5 -2.1,-3.1 -3.6,-3.6c-3.2,-1.3 -5.1,-3.2 -6.4,-6.4c-0.5,-1.5 -2.1,-3.1 -3.6,-3.6c-3.2,-1.3 -5.1,-3.2 -6.4,-6.4c-0.5,-1.5 -2.1,-3.1 -3.6,-3.6c-3.2,-1.3 -5.1,-3.2 -6.4,-6.4c-0.5,-1.5 -2.1,-3.1 -3.6,-3.6c-3.2,-1.3 -5.1,-3.2 -6.4,-6.4c-0.5,-1.5 -2.1,-3.1 -3.6,-3.6c-3.2,-1.3 -5.1,-3.2 -6.4,-6.4c-0.5,-1.5 -2.1,-3.1 -3.6,-3.6c-3.2,-1.3 -5.1,-3.2 -6.4,-6.4c-0.5,-1.5 -2.1,-3.1 -3.6,-3.6c-3.2,-1.3 -5.1,-3.2 -6.4,-6.4c-0.5,-1.5 -2.1,-3.1 -3.6,-3.6c-3.2,-1.3 -5.1,-3.2 -6.4,-6.4c-0.5,-1.5 -2.1,-3.1 -3.6,-3.6c-3.2,-1.3 -5.1,-3.2 -6.4,-6.4c-0.5,-1.5 -2.1,-3.1 -3.6,-3.6c-3.2,-1.3 -5.1,-3.2 -6.4,-6.4c-0.5,-1.5 -2.1,-3.1 -3.6,-3.6c-3.2,-1.3 -5.1,-3.2 -6.4,-6.4c-0.5,-1.5 -2.1,-3.1 -3.6,-3.6c-3.2,-1.3 -5.1,-3.2 -6.4,-6.4c-0.5,-1.5 -2.1,-3.1 -3.6,-3.6c-3.2,-1.3 -5.1,-3.2 -6.4,-6.4c-0.5,-1.5 -2.1,-3.1 -3.6,-3.6c-3.2,-1.3 -5.1,-3.2 -6.4,-6.4c-0.5,-1.5 -2.1,-3.1 -3.6,-3.6c-3.2,-1.3 -5.1,-3.2 -6.4,-6.4c-0.5,-1.5 -2.1,-3.1 -3.6,-3.6c-3.2,-1.3 -5.1,-3.2 -6.4,-6.4c-0.5,-1.5 -2.1,-3.1 -3.6,-3.6c-3.2,-1.3 -5.1,-3.2 -6.4,-6.4c-0.5,-1.5 -2.2,-3.1 -3.6,-3.7c-3,-1.1 -6.4,-4.5 -6.4,-6.4c-0,-0.7 -0.7,-1.8 -1.5,-2.5c-2.1,-1.7 -4.1,0.1 -4.9,4.5c-0.4,1.9 -1.1,3.5 -1.6,3.5c-0.6,-0 -1.1,35.4 -1.2,93.8l-0.3,93.7l-157,-0l-0.3,-237.5c-0.1,-130.6 -0,-238.1 0.3,-238.8c0.3,-0.9 40.9,-1.2 198.4,-1.2c108.9,-0 198.7,0.3 199.6,0.6Zm1359,-0.1l-0,77l-157.8,0.3c-156.1,0.2 -157.7,0.2 -159.7,2.2c-1.9,1.9 -2,3.4 -2,39c-0,35.7 0.1,37.1 2,39c2,2 3.3,2 119.4,2c64.6,-0 118.2,0.3 119.1,0.6c0.9,0.4 2.1,1.7 2.6,3.1c0.5,1.3 2,2.8 3.5,3.3c3.2,1.3 5.1,3.2 6.4,6.4c0.5,1.5 2.1,3.1 3.6,3.6c3.2,1.3 5.1,3.2 6.4,6.4c0.5,1.5 2.1,3.1 3.6,3.6c3.2,1.3 5.1,3.2 6.4,6.4c0.5,1.5 2.1,3.1 3.6,3.6c3.2,1.3 5.1,3.2 6.4,6.4c0.5,1.5 2.1,3.1 3.6,3.6c3.2,1.3 5.1,3.2 6.4,6.4c0.5,1.5 2.1,3.1 3.6,3.6c3.2,1.3 5.1,3.2 6.4,6.4c0.5,1.5 2.1,3.1 3.6,3.6c3.2,1.3 5.1,3.2 6.4,6.4c0.5,1.5 2,3 3.3,3.5c1.4,0.5 2.7,1.7 3.1,2.6c0.8,2.2 0.8,156.8 -0,159c-0.4,0.9 -1.7,2.1 -3.1,2.6c-1.3,0.5 -2.8,2 -3.3,3.5c-1.3,3.2 -3.2,5.1 -6.4,6.4c-1.5,0.5 -3.1,2.1 -3.6,3.6c-1.3,3.2 -3.2,5.1 -6.4,6.4c-1.5,0.5 -3.1,2.1 -3.6,3.6c-1.3,3.2 -3.2,5.1 -6.4,6.4c-1.5,0.5 -3.1,2.1 -3.6,3.6c-1.3,3.2 -3.2,5.1 -6.4,6.4c-1.5,0.5 -3.1,2.1 -3.6,3.6c-1.3,3.2 -3.2,5.1 -6.4,6.4c-1.5,0.5 -3.1,2.1 -3.6,3.6c-1.3,3.2 -3.2,5.1 -6.4,6.4c-1.5,0.5 -3.1,2.1 -3.6,3.6c-1.3,3.2 -3.2,5.1 -6.4,6.4c-1.5,0.5 -3.1,2.1 -3.6,3.5c-0.5,1.3 -2,2.7 -3.2,3c-1.3,0.3 -91.2,0.4 -199.8,0.3l-197.5,-0.3l-0,-77l157.8,-0.3c156.1,-0.2 157.7,-0.2 159.7,-2.2c2,-2 2,-3.4 2,-79c-0,-75.7 -0,-77 -2,-79c-2,-2 -3.3,-2 -119.4,-2c-64.6,-0 -118.2,-0.3 -119.1,-0.6c-0.9,-0.4 -2.1,-1.7 -2.6,-3.1c-0.5,-1.3 -2,-2.8 -3.5,-3.3c-3.2,-1.3 -5.1,-3.2 -6.4,-6.4c-0.5,-1.5 -2.1,-3.1 -3.6,-3.6c-3.2,-1.3 -5.1,-3.2 -6.4,-6.4c-0.5,-1.5 -2.1,-3.1 -3.6,-3.6c-3.2,-1.3 -5.1,-3.2 -6.4,-6.4c-0.5,-1.5 -2.1,-3.1 -3.6,-3.6c-3.2,-1.3 -5.1,-3.2 -6.4,-6.4c-0.5,-1.5 -2.1,-3.1 -3.6,-3.6c-3.2,-1.3 -5.1,-3.2 -6.4,-6.4c-0.5,-1.5 -2.1,-3.1 -3.6,-3.6c-3.2,-1.3 -5.1,-3.2 -6.4,-6.4c-0.5,-1.5 -2.1,-3.1 -3.6,-3.6c-3.2,-1.3 -5.1,-3.2 -6.4,-6.4c-0.5,-1.5 -2,-3 -3.3,-3.5c-1.4,-0.5 -2.7,-1.7 -3.1,-2.6c-0.8,-2.2 -0.8,-76.8 -0,-79c0.4,-0.9 1.7,-2.1 3.1,-2.6c1.3,-0.5 2.8,-2 3.3,-3.5c1.3,-3.2 3.2,-5.1 6.4,-6.4c1.5,-0.5 3.1,-2.1 3.6,-3.6c1.3,-3.2 3.2,-5.1 6.4,-6.4c1.5,-0.5 3.1,-2.1 3.6,-3.6c1.3,-3.2 3.2,-5.1 6.4,-6.4c1.5,-0.5 3.1,-2.1 3.6,-3.6c1.3,-3.2 3.2,-5.1 6.4,-6.4c1.5,-0.5 3.1,-2.1 3.6,-3.6c1.3,-3.2 3.2,-5.1 6.4,-6.4c1.5,-0.5 3.1,-2.1 3.6,-3.6c1.3,-3.2 3.2,-5.1 6.4,-6.4c1.5,-0.5 3.1,-2.1 3.6,-3.6c1.3,-3.2 3.2,-5.1 6.4,-6.4c1.5,-0.5 3,-2.1 3.6,-3.4c0.5,-1.3 1.5,-2.6 2.2,-2.9c0.7,-0.3 90.6,-0.5 199.8,-0.4l198.5,0.2Zm-3519.7,197.8c0.2,196 0.2,197.7 2.2,199.7c2,2 3.6,2 159.7,2.2l157.8,0.3l-0,77l-477,-0l-0.3,-237.5c-0.1,-130.6 -0,-238.1 0.3,-238.8c0.3,-1 16.6,-1.2 78.7,-1l78.3,0.3l0.3,197.8Zm2879.7,-197.8l-0,77l-157.8,0.3c-156.1,0.2 -157.7,0.2 -159.7,2.2c-1.9,1.9 -2,3.4 -2,39c-0,35.6 0.1,37.1 2,39c1.9,1.9 3.6,2 79.7,2.2l77.8,0.3l-0,77l-77.8,0.3c-76.1,0.2 -77.8,0.3 -79.7,2.2c-2,2 -2,3.4 -2,79c-0,75.6 -0,77 2,79c2,2 3.6,2 159.7,2.2l157.8,0.3l-0,77l-477,-0l-0.3,-237.5c-0.1,-130.6 -0,-238.1 0.3,-238.8c0.3,-1 48.6,-1.2 238.7,-1l238.3,0.3Zm-2237.7,79.6c-1.7,1.8 -1.8,10.8 -1.8,158.9c-0,155.7 -0,157 2,159c2,2 3.3,2 79,2c75.7,-0 77,-0 79,-2c2,-2 2,-3.3 2,-159c-0,-155.7 -0,-157 -2,-159c-2,-2 -3.3,-2 -79.2,-1.9c-74.8,0.1 -77.4,0.1 -79,2Zm1280,-0c-1.7,1.7 -1.8,5.1 -1.8,38.9c-0,35.7 0.1,37.1 2,39c2,2 3.3,2 79,2c75.7,-0 77,-0 79,-2c1.9,-1.9 2,-3.3 2,-39c-0,-35.7 -0.1,-37.1 -2,-39c-2,-2 -3.3,-2 -79.2,-1.9c-74.8,0.1 -77.4,0.1 -79,2Z" style="fill:#f6f5f5;fill-rule:nonzero;"/>
        <path d="M5383.45,42.249l-1159.94,0l-0,554.621l1159.94,-0l0.222,-194.69l-54.478,-121.149l54.7,-73.541l-0.444,-165.241Z" style="fill:#222121;"/>
        <path d="M4161.4,1.5c-0.9,2.3 0.4,627.4 1.3,633l0.8,5l638.3,0.3l638.2,0.2l-0.2,-139.7l-0.3,-139.8l-3.8,-0.6c-4.4,-0.7 -4.1,-0.4 -6,-5c-1.1,-2.7 -2.4,-4 -5,-4.8c-2.6,-0.9 -3.8,-2.1 -4.9,-5c-1.2,-2.9 -2.4,-4.1 -5,-5c-2.7,-0.9 -3.9,-2.1 -5,-5c-1.2,-2.9 -2.4,-4.1 -5,-5c-2.7,-0.9 -3.9,-2.1 -5,-5c-1.2,-2.9 -2.4,-4.1 -5,-5c-2.7,-0.9 -3.9,-2.1 -5,-5c-1.2,-2.9 -2.4,-4.1 -5,-5c-2.7,-0.9 -3.9,-2.1 -5,-5c-1.2,-3 -2.4,-4.1 -5.1,-5c-2.8,-0.9 -3.8,-2 -4.8,-4.8c-0.8,-2.6 -2.1,-3.9 -4.8,-5c-4.7,-2 -5.1,-2.7 -5.1,-10.3c0,-7.6 0.4,-8.3 5.1,-10.3c2.7,-1.1 4,-2.4 4.8,-5c1,-2.8 2,-3.9 4.8,-4.8c2.7,-0.9 3.9,-2 5.1,-5c1.1,-2.9 2.3,-4.1 5,-5c2.6,-0.9 3.8,-2.1 5,-5c1.1,-2.9 2.3,-4.1 5,-5c2.6,-0.9 3.8,-2.1 5,-5c1.1,-2.9 2.3,-4.1 5,-5c2.6,-0.9 3.8,-2.1 5,-5c1.1,-2.9 2.3,-4.1 5,-5c2.6,-0.9 3.8,-2.1 5,-5c1.1,-2.9 2.3,-4.1 4.9,-5c2.6,-0.8 3.9,-2.1 5,-4.8c1.9,-4.6 1.6,-4.3 6,-5l3.8,-0.6l0.3,-99.8l0.2,-99.7l-639,0c-564.4,0 -639.1,0.2 -639.6,1.5Zm245.9,78.9c1,0.5 2.1,2.1 2.4,3.7c0.6,3.3 2.8,5.4 6.5,6.3c1.9,0.4 3,1.5 3.4,3.4c0.9,3.7 3,5.9 6.4,6.6c2.2,0.4 3.1,1.3 3.6,3.3c0.9,3.8 3,6 6.4,6.7c2.2,0.4 3.1,1.3 3.6,3.3c0.9,3.8 3,6 6.4,6.7c2.2,0.4 3.1,1.3 3.6,3.3c0.9,3.8 3,6 6.4,6.7c2.2,0.4 3.1,1.3 3.6,3.3c0.9,3.8 3,6 6.4,6.7c2.3,0.4 3.1,1.3 3.7,3.8c0.7,2.6 1.8,3.7 5.1,5.3c3.2,1.5 4.5,2.7 5,5c0.6,2.2 1.8,3.5 5,5c3.2,1.5 4.5,2.7 5,5c0.6,2.2 1.8,3.5 5,5c3.2,1.5 4.5,2.7 5,5c0.6,2.2 1.8,3.5 4.9,4.9c3,1.5 4.5,3 5.6,5.7c1.1,2.7 2.3,3.9 4.9,4.8c2.7,0.9 3.9,2.1 5,5c1.2,2.9 2.4,4.1 5,5c2.7,0.9 3.9,2.1 5,5c1.2,2.9 2.4,4.1 5,5c2.7,0.9 3.9,2.1 5,5c1.2,3 2.4,4.1 5.1,5c2.7,0.9 3.8,2 4.7,4.7c0.6,1.9 2,3.9 3,4.4c2.4,1.3 2.6,1.3 4.4,-0.6c1.4,-1.4 1.6,-9.4 1.6,-73.6c0,-65.7 0.1,-72.3 1.7,-74c1.5,-1.7 5.3,-1.8 79.3,-1.8c73.8,0 77.8,0.1 79.3,1.8c1.5,1.7 1.7,11.5 2.2,111.3c0.6,132.5 0.6,112 0,250.8c-0.5,104.4 -0.7,114.6 -2.2,116.3c-1.5,1.7 -5.4,1.8 -79.1,1.8c-70.8,0 -77.7,-0.1 -79.4,-1.7c-1.7,-1.5 -1.8,-4 -1.8,-38.4c0,-20.2 -0.3,-37.4 -0.6,-38.3c-0.3,-0.8 -2,-2 -3.8,-2.6c-2.5,-0.8 -3.7,-2.1 -4.8,-4.9c-1.2,-2.9 -2.4,-4.1 -5,-5c-2.7,-0.9 -3.9,-2.1 -5,-5c-1.2,-2.9 -2.4,-4.1 -5,-5c-2.7,-0.9 -3.9,-2.1 -5,-5c-1.2,-2.9 -2.4,-4.1 -5,-5c-2.7,-0.9 -3.9,-2.1 -5,-5c-1.2,-3 -2.4,-4.1 -5.1,-5c-2.8,-1 -3.8,-2 -4.8,-4.8c-0.9,-2.7 -2,-3.9 -5,-5.1c-2.9,-1.1 -4.1,-2.3 -5,-5c-0.9,-2.6 -2.1,-3.8 -5,-5c-2.9,-1.1 -4.1,-2.3 -5,-5c-0.9,-2.6 -2.1,-3.8 -5,-5c-2.9,-1.1 -4.1,-2.3 -5,-5c-0.9,-2.6 -2.1,-3.8 -5,-5c-2.9,-1.1 -4.1,-2.3 -5,-5c-0.9,-2.6 -2.1,-3.8 -5,-5c-2.9,-1.1 -4.1,-2.3 -5,-5c-0.9,-2.6 -2.1,-3.8 -5,-5c-2.9,-1.1 -4.1,-2.3 -5,-5c-0.9,-2.6 -2.1,-3.8 -5,-5c-2.9,-1.1 -4.1,-2.3 -5,-5c-0.9,-2.6 -2.1,-3.8 -5,-5c-2.9,-1.1 -4.1,-2.3 -5,-5c-0.9,-2.6 -2.1,-3.8 -5,-5c-2.9,-1.1 -4.1,-2.3 -5,-5c-0.9,-2.6 -2.1,-3.8 -5,-5c-2.9,-1.1 -4.1,-2.3 -4.9,-4.8c-0.7,-1.9 -2,-3.9 -3,-4.4c-2.4,-1.3 -2.6,-1.3 -4.4,0.6c-1.4,1.4 -1.6,13.1 -1.6,113.6c0,102.9 -0.1,112.3 -1.7,114c-1.5,1.7 -5.3,1.8 -79.1,1.8c-70.8,0 -77.7,-0.1 -79.4,-1.7c-1.7,-1.5 -1.8,-10.3 -1.8,-239.1c0,-221.3 0.1,-237.7 1.7,-239.4c1.6,-1.8 4.8,-1.9 83.2,-1.6c44.9,0.2 82.4,0.7 83.4,1.2Zm640,0c1,0.5 2.1,2.1 2.4,3.7c0.6,3.3 2.8,5.4 6.5,6.3c1.9,0.4 3,1.5 3.4,3.4c0.9,3.7 3,5.9 6.4,6.6c2.2,0.4 3.1,1.3 3.6,3.3c0.9,3.8 3,6 6.4,6.7c2.2,0.4 3.1,1.3 3.6,3.3c0.9,3.8 3,6 6.4,6.7c2.2,0.4 3.1,1.3 3.6,3.3c0.9,3.8 3,6 6.4,6.7c2.2,0.4 3.1,1.3 3.6,3.3c0.9,3.9 3,6 6.5,6.7c2.3,0.4 3.1,1.2 3.6,3.6c0.8,4.3 3.8,6 10.3,6c6.5,0 9.5,-1.7 10.3,-6c0.5,-2.4 1.3,-3.2 3.6,-3.6c3.5,-0.7 5.6,-2.8 6.5,-6.6c0.4,-1.9 1.5,-3 3.4,-3.4c3.7,-0.9 5.9,-3 6.6,-6.4c0.4,-2.2 1.3,-3.1 3.3,-3.6c3.8,-0.9 6,-3 6.7,-6.4c0.4,-2.2 1.3,-3.1 3.3,-3.6c3.8,-0.9 6,-3 6.7,-6.4c0.4,-2.2 1.3,-3.1 3.3,-3.6c3.8,-0.9 6,-3 6.7,-6.4c0.4,-2.2 1.3,-3.1 3.3,-3.6c3.8,-0.9 6,-3 6.6,-6.3c0.3,-1.6 1.4,-3.2 2.4,-3.7c1,-0.5 38.4,-1 83.2,-1.2c76.2,-0.2 81.5,-0.2 83.3,1.5c1.8,1.7 1.9,3.3 1.6,43.3c-0.2,22.8 -0.7,42.2 -1.1,43c-0.4,0.9 -2.6,2.5 -4.9,3.5c-3.2,1.5 -4.4,2.8 -5,5c-0.5,2.3 -1.8,3.5 -5,5c-3.2,1.5 -4.4,2.8 -5,5.1c-0.6,2.4 -1.7,3.4 -4.7,4.6c-2.9,1.2 -4.1,2.4 -5,5c-0.9,2.7 -2.1,3.9 -5,5c-2.9,1.2 -4.1,2.4 -5,5c-0.9,2.7 -2.1,3.9 -5,5c-2.9,1.2 -4.1,2.4 -5,5c-0.9,2.7 -2.1,3.9 -5,5c-2.9,1.2 -4.1,2.4 -5,5c-0.9,2.7 -2.1,3.9 -5,5c-2.9,1.2 -4.1,2.4 -5,5c-0.9,2.7 -2.1,3.9 -5,5c-2.9,1.2 -4.1,2.4 -5,5c-0.9,2.7 -2.1,3.9 -5,5c-3,1.2 -4.1,2.4 -5,5.1c-1,2.8 -2,3.8 -4.8,4.8c-2.7,0.9 -3.9,2 -5.1,5c-1.1,2.9 -2.3,4.1 -4.8,4.9c-4.3,1.4 -5.4,3.5 -5.4,10c0,6.5 1.1,8.6 5.4,10c2.5,0.8 3.7,2 4.8,4.9c1.2,2.9 2.4,4.1 5,5c2.7,0.9 3.9,2.1 5,5c1.2,2.9 2.4,4.1 5,5c2.7,0.9 3.9,2.1 5,5c1.2,2.9 2.4,4.1 5,5c2.7,0.9 3.9,2.1 5,5c1.2,3 2.4,4.1 5.1,5c2.8,1 3.8,2 4.8,4.8c0.9,2.7 2,3.9 5,5.1c2.9,1.1 4.1,2.3 5,5c0.9,2.6 2.1,3.8 5,5c2.9,1.1 4.1,2.3 5,5c0.9,2.6 2.1,3.8 5,5c2.9,1.1 4.1,2.3 5,5c0.9,2.6 2.1,3.8 5,5c2.9,1.1 4.1,2.3 5,5c0.9,2.6 2.1,3.8 5,5c2.9,1.1 4.1,2.3 5,5c0.9,2.6 2.1,3.8 5,5c2.1,0.8 4.1,2.2 4.6,3.1c0.4,0.9 0.9,38.2 1.1,83c0.2,75.2 0.1,81.5 -1.4,83.2c-1.6,1.8 -4.8,1.9 -79.2,1.9c-70.8,0 -77.7,-0.1 -79.4,-1.7c-1.7,-1.5 -1.8,-4.7 -1.8,-58.4c0,-31.2 -0.3,-57.4 -0.6,-58.3c-0.3,-0.8 -2.1,-2 -3.9,-2.6c-2.6,-0.8 -3.7,-2 -4.6,-4.7c-0.9,-2.7 -2,-3.9 -5,-5.1c-2.9,-1.1 -4.1,-2.3 -5,-5c-0.9,-2.6 -2.1,-3.8 -5,-5c-2.9,-1.1 -4.1,-2.3 -5,-5c-0.9,-2.6 -2.1,-3.8 -5,-5c-2.9,-1.1 -4.1,-2.3 -5,-5c-0.9,-2.6 -2.1,-3.8 -5,-5c-2.9,-1.1 -4.1,-2.3 -5,-5c-0.9,-2.6 -2.1,-3.8 -5,-5c-2.9,-1.1 -4.1,-2.3 -5,-5c-0.9,-2.6 -2.1,-3.8 -5,-5c-2.9,-1.1 -4.1,-2.3 -4.9,-4.8c-1.4,-4.3 -3.5,-5.4 -10,-5.4c-6.5,0 -8.6,1.1 -10,5.4c-0.8,2.5 -2,3.7 -4.9,4.8c-2.9,1.2 -4.1,2.4 -5,5c-0.9,2.7 -2.1,3.9 -5,5c-2.9,1.2 -4.1,2.4 -5,5c-0.9,2.7 -2.1,3.9 -5,5c-2.9,1.2 -4.1,2.4 -5,5c-0.9,2.7 -2.1,3.9 -5,5c-2.9,1.2 -4.1,2.4 -5,5c-0.9,2.7 -2.1,3.9 -5,5c-2.9,1.2 -4.1,2.4 -5,5c-0.9,2.7 -2.1,3.9 -5,5c-3,1.2 -4.1,2.4 -5,5.1c-0.9,2.7 -2,3.9 -4.6,4.7c-1.8,0.6 -3.6,1.8 -3.9,2.6c-0.3,0.9 -0.6,27 -0.6,58.2c0,51.2 -0.2,56.7 -1.7,58.4c-1.5,1.7 -5.3,1.8 -79.3,1.8c-74.6,0 -77.8,-0.1 -79.4,-1.9c-1.5,-1.7 -1.6,-8 -1.4,-83.2c0.2,-44.8 0.7,-82.1 1.1,-83c0.5,-0.9 2.5,-2.3 4.6,-3.1c2.9,-1.2 4.1,-2.4 5,-5c0.9,-2.7 2.1,-3.9 5,-5c2.9,-1.2 4.1,-2.4 5,-5c0.9,-2.7 2.1,-3.9 5,-5c2.9,-1.2 4.1,-2.4 5,-5c0.9,-2.7 2.1,-3.9 5,-5c3,-1.2 4.1,-2.4 5,-5.1c0.9,-2.8 2,-3.8 4.7,-4.7c2.8,-0.9 4,-2.2 5.4,-5.5c1.4,-3.3 2.5,-4.3 4.9,-4.8c2.2,-0.5 3.5,-1.5 4.2,-3.4c2,-5.1 2.4,-5.5 5.9,-6.7c2.7,-0.8 3.8,-1.9 4.6,-4.6c1.1,-3.5 1.6,-3.9 6.6,-5.9c1.8,-0.7 3,-2.1 3.6,-4.2c0.8,-3.3 1.4,-3.8 6.5,-5.8c1.9,-0.7 2.9,-2 3.3,-4.1c0.7,-3.4 1.8,-4.5 5.7,-5.4c2.2,-0.5 3.3,-1.7 4.4,-4.6c1.2,-3 2.4,-4.2 4.9,-5c4.3,-1.4 5.4,-3.5 5.4,-10c0,-6.5 -1.1,-8.6 -5.4,-10c-2.5,-0.8 -3.7,-2 -4.8,-4.9c-1.2,-2.9 -2.4,-4.1 -5,-5c-2.7,-0.9 -3.9,-2.1 -5,-5c-1.2,-2.9 -2.4,-4.1 -5,-5c-2.7,-0.9 -3.9,-2.1 -5,-5c-1.2,-2.9 -2.4,-4.1 -5,-5c-2.7,-0.9 -3.9,-2.1 -5,-5c-1.2,-2.9 -2.4,-4.1 -5,-5c-2.7,-0.9 -3.9,-2.1 -5,-5c-1.2,-2.9 -2.4,-4.1 -5,-5c-2.7,-0.9 -3.9,-2.1 -5,-5c-1.2,-3 -2.4,-4.1 -5.1,-5c-2.8,-1 -3.8,-2 -4.8,-4.8c-0.9,-2.7 -2,-3.9 -4.9,-5c-2.8,-1.1 -4.2,-2.5 -5.3,-5.3c-1.1,-2.8 -2.3,-4 -4.9,-4.9c-2.7,-0.9 -3.9,-2.1 -5,-5c-1.2,-3 -2.4,-4.1 -5.2,-5.1c-2.8,-0.9 -3.8,-1.9 -4.4,-4.3c-0.6,-2.4 -1.8,-3.7 -5,-5.2c-2.3,-1 -4.5,-2.6 -4.9,-3.5c-0.4,-0.8 -0.9,-20.1 -1.1,-42.9c-0.3,-38.2 -0.2,-41.5 1.4,-43.2c1.7,-1.9 3.8,-2 83.3,-1.7c44.9,0.2 82.4,0.7 83.4,1.2Z" style="fill:#fe7805;fill-rule:nonzero;"/>
    </g>
</svg>
