<?xml version="1.0" encoding="UTF-8" standalone="no"?>
<!DOCTYPE svg PUBLIC "-//W3C//DTD SVG 1.1//EN" "http://www.w3.org/Graphics/SVG/1.1/DTD/svg11.dtd">
<svg width="2370px" height="478px" version="1.1" xmlns="http://www.w3.org/2000/svg" xmlns:xlink="http://www.w3.org/1999/xlink" xml:space="preserve" xmlns:serif="http://www.serif.com/" style="fill-rule:evenodd;clip-rule:evenodd;stroke-linejoin:round;stroke-miterlimit:2;">
    <g>
        <path d="M406.188,446.574l0,-435.888l-72.45,0l1.194,280.303l-334.932,-276.736l1.181,437.081l62.955,0l0,-282.676l342.052,277.916Zm46.328,7.12l55.821,-95.016l-51.075,0l0,-66.496l84.33,0l153.212,-277.929l244.674,439.441l-86.703,0l-49.881,-95.016l-217.348,0l-52.255,95.016l-80.775,0Zm162.718,-162.705l156.779,0l-78.39,-143.718l-78.389,143.718Zm944.238,162.705l-71.256,0l-0,-438.261l242.288,281.483l244.662,-287.41l-0,444.188l-76.029,0l-1.167,-238.721l-168.659,203.106l-169.839,-201.926l0,237.541Zm553.472,0l1.18,-448.948l72.449,0l-1.18,448.948l-72.449,0Zm140.151,-375.306l-0,-62.955l-20.181,0l-0,-11.88l55.822,0l-0,11.88l-21.4,0l-0,62.955l-14.241,0Zm39.195,-1.193l-0,-73.642l20.181,0l21.387,46.328l20.181,-46.328l15.46,0l-0,74.835l-14.267,0l-0,-48.701l-20.181,48.701l-28.508,-48.701l-0,48.701l-14.253,-1.193Z" style="fill:#fff;"/>
        <path d="M937.105,238.734c0,-131.837 106.897,-238.734 238.747,-238.734c131.825,0 238.722,106.897 238.722,238.734c0,131.825 -106.897,238.722 -238.722,238.722c-131.85,0 -238.747,-106.897 -238.747,-238.722Zm238.747,167.466c92.643,0 167.44,-74.836 167.44,-167.466c0,-91.449 -74.81,-166.285 -167.44,-166.285c-91.462,0 -166.298,74.836 -166.298,166.285c0,92.63 74.823,167.466 166.298,167.466Z" style="fill:#cc2229;"/>
    </g>
</svg>
