<?xml version="1.0" encoding="UTF-8" standalone="no"?>
<!DOCTYPE svg PUBLIC "-//W3C//DTD SVG 1.1//EN" "http://www.w3.org/Graphics/SVG/1.1/DTD/svg11.dtd">
<svg width="421px" height="108px" version="1.1" xmlns="http://www.w3.org/2000/svg" xmlns:xlink="http://www.w3.org/1999/xlink" xml:space="preserve" xmlns:serif="http://www.serif.com/" style="fill-rule:evenodd;clip-rule:evenodd;stroke-linejoin:round;stroke-miterlimit:2;">
    <path d="M12.022,53.518c0,3.652 -0.06,5.635 -0.15,5.635c-0.075,0 -0.15,0.106 -0.15,0.226c-0,0.12 -0.106,0.225 -0.226,0.225c-0.12,0 -0.225,0.06 -0.225,0.151c-0,0.09 -1.984,0.15 -5.636,0.15l-5.635,-0l-0,47.788l23.744,0l-0,-11.646c-0,-7.665 0.045,-11.647 0.15,-11.647c0.09,0 0.15,-0.105 0.15,-0.225c0,-0.121 0.106,-0.226 0.226,-0.226c0.12,0 0.225,-0.075 0.225,-0.15c0,-0.105 5.981,-0.15 17.658,-0.15l17.658,-0l-0,-35.766l-47.789,-0l0,5.635Zm23.293,6.237c0,0.075 0.105,0.15 0.226,0.15c0.12,-0 0.225,0.105 0.225,0.225c0,0.12 0.075,0.226 0.15,0.226c0.091,-0 0.151,1.908 0.151,5.41c-0,3.501 -0.06,5.41 -0.151,5.41c-0.075,-0 -0.15,0.105 -0.15,0.225c0,0.12 -0.105,0.226 -0.225,0.226c-0.121,-0 -0.226,0.06 -0.226,0.15c0,0.09 -1.908,0.15 -5.41,0.15c-3.501,0 -5.41,-0.06 -5.41,-0.15c0,-0.09 -0.105,-0.15 -0.225,-0.15c-0.12,-0 -0.226,-0.106 -0.226,-0.226c0,-0.12 -0.06,-0.225 -0.15,-0.225c-0.09,-0 -0.15,-1.909 -0.15,-5.41c-0,-3.502 0.06,-5.41 0.15,-5.41c0.09,-0 0.15,-0.106 0.15,-0.226c0,-0.12 0.106,-0.225 0.226,-0.225c0.12,-0 0.225,-0.075 0.225,-0.15c0,-0.091 1.909,-0.151 5.41,-0.151c3.502,0 5.41,0.06 5.41,0.151Z" style="fill:#fff1e8;fill-rule:nonzero;"/>
    <path d="M72.133,47.883l0,11.721l5.636,0c3.652,0 5.635,0.06 5.635,0.151c0,0.075 0.105,0.15 0.226,0.15c0.12,-0 0.225,0.105 0.225,0.225c0,0.12 0.075,0.226 0.15,0.226c0.105,-0 0.151,5.906 0.151,17.432c-0,11.526 -0.046,17.432 -0.151,17.432c-0.075,0 -0.15,0.105 -0.15,0.226c0,0.12 -0.105,0.225 -0.225,0.225c-0.121,-0 -0.226,0.06 -0.226,0.15c0,0.09 -1.983,0.151 -5.635,0.151l-5.636,-0l0,11.721l47.789,0l-0,-11.721l-5.636,-0c-3.651,-0 -5.635,-0.061 -5.635,-0.151c-0,-0.09 -0.105,-0.15 -0.226,-0.15c-0.12,-0 -0.225,-0.105 -0.225,-0.225c0,-0.121 -0.06,-0.226 -0.15,-0.226c-0.105,0 -0.151,-5.906 -0.151,-17.432c0,-11.526 0.046,-17.432 0.151,-17.432c0.09,-0 0.15,-0.106 0.15,-0.226c0,-0.12 0.105,-0.225 0.225,-0.225c0.121,-0 0.226,-0.075 0.226,-0.15c-0,-0.091 1.984,-0.151 5.635,-0.151l5.636,0l-0,-11.721l-47.789,-0Z" style="fill:#fff1e8;fill-rule:nonzero;"/>
    <path d="M144.267,53.518c-0,3.652 -0.06,5.635 -0.151,5.635c-0.075,0 -0.15,0.106 -0.15,0.226c0,0.12 -0.105,0.225 -0.225,0.225c-0.121,0 -0.226,0.06 -0.226,0.151c0,0.09 -1.983,0.15 -5.635,0.15l-5.636,-0l0,47.788l47.789,0l-0,-11.721l-11.647,-0c-7.664,-0 -11.646,-0.046 -11.646,-0.151c-0,-0.09 -0.105,-0.15 -0.226,-0.15c-0.12,-0 -0.225,-0.105 -0.225,-0.225c-0,-0.121 -0.06,-0.226 -0.15,-0.226c-0.106,0 -0.151,-5.906 -0.151,-17.432c0,-11.526 0.045,-17.432 0.151,-17.432c0.09,-0 0.15,-0.106 0.15,-0.226c-0,-0.12 0.105,-0.225 0.225,-0.225c0.121,-0 0.226,-0.075 0.226,-0.15c-0,-0.106 3.982,-0.151 11.646,-0.151l11.647,0l-0,-11.721l-35.766,-0l-0,5.635Z" style="fill:#fff1e8;fill-rule:nonzero;"/>
    <path d="M204.378,53.518c-0,3.652 -0.06,5.635 -0.15,5.635c-0.076,0 -0.151,0.106 -0.151,0.226c0,0.12 -0.105,0.225 -0.225,0.225c-0.12,0 -0.226,0.06 -0.226,0.151c0,0.09 -1.983,0.15 -5.635,0.15l-5.635,-0l-0,47.788l47.788,0l-0,-5.635c-0,-3.652 0.06,-5.636 0.15,-5.636c0.09,0 0.15,-0.105 0.15,-0.225c0,-0.12 0.106,-0.225 0.226,-0.225c0.12,-0 0.225,-0.076 0.225,-0.151c0,-0.09 1.984,-0.15 5.636,-0.15l5.635,-0l0,-47.788l-47.788,-0l-0,5.635Zm23.293,6.237c-0,0.075 0.105,0.15 0.225,0.15c0.12,-0 0.226,0.105 0.226,0.225c-0,0.12 0.075,0.226 0.15,0.226c0.105,-0 0.15,5.906 0.15,17.432c0,11.526 -0.045,17.432 -0.15,17.432c-0.075,0 -0.15,0.105 -0.15,0.226c-0,0.12 -0.106,0.225 -0.226,0.225c-0.12,-0 -0.225,0.06 -0.225,0.15c-0,0.09 -1.909,0.151 -5.41,0.151c-3.502,-0 -5.41,-0.061 -5.41,-0.151c-0,-0.09 -0.105,-0.15 -0.226,-0.15c-0.12,-0 -0.225,-0.105 -0.225,-0.225c0,-0.121 -0.06,-0.226 -0.15,-0.226c-0.105,0 -0.151,-5.906 -0.151,-17.432c0,-11.526 0.046,-17.432 0.151,-17.432c0.09,-0 0.15,-0.106 0.15,-0.226c0,-0.12 0.105,-0.225 0.225,-0.225c0.121,-0 0.226,-0.075 0.226,-0.15c-0,-0.091 1.908,-0.151 5.41,-0.151c3.501,0 5.41,0.06 5.41,0.151Z" style="fill:#fff1e8;fill-rule:nonzero;"/>
    <path d="M312.578,59.529c-0,7.664 -0.045,11.647 -0.15,11.647c-0.076,-0 -0.151,0.105 -0.151,0.225c0,0.12 -0.105,0.226 -0.225,0.226c-0.12,-0 -0.226,0.06 -0.226,0.15c0,0.09 -1.983,0.15 -5.635,0.15l-5.635,0l-0,35.766l59.81,0l0,-59.81l-47.788,-0l-0,11.646Zm35.315,0.226c0,0.075 0.105,0.15 0.225,0.15c0.121,-0 0.226,0.105 0.226,0.225c-0,0.12 0.075,0.226 0.15,0.226c0.09,-0 0.15,1.908 0.15,5.41c0,3.501 -0.06,5.41 -0.15,5.41c-0.075,-0 -0.15,0.105 -0.15,0.225c-0,0.12 -0.105,0.226 -0.226,0.226c-0.12,-0 -0.225,0.06 -0.225,0.15c0,0.105 -3.907,0.15 -11.421,0.15c-7.514,0 -11.421,-0.045 -11.421,-0.15c-0,-0.09 -0.105,-0.15 -0.226,-0.15c-0.12,-0 -0.225,-0.106 -0.225,-0.226c0,-0.12 -0.06,-0.225 -0.15,-0.225c-0.09,-0 -0.151,-1.909 -0.151,-5.41c0,-3.502 0.061,-5.41 0.151,-5.41c0.09,-0 0.15,-0.106 0.15,-0.226c0,-0.12 0.105,-0.225 0.225,-0.225c0.121,-0 0.226,-0.075 0.226,-0.15c-0,-0.106 3.907,-0.151 11.421,-0.151c7.514,0 11.421,0.045 11.421,0.151Zm0,24.044c0,0.075 0.105,0.15 0.225,0.15c0.121,0 0.226,0.105 0.226,0.226c-0,0.12 0.075,0.225 0.15,0.225c0.09,0 0.15,1.909 0.15,5.41c0,3.502 -0.06,5.41 -0.15,5.41c-0.075,0 -0.15,0.105 -0.15,0.226c-0,0.12 -0.105,0.225 -0.226,0.225c-0.12,-0 -0.225,0.06 -0.225,0.15c0,0.105 -3.907,0.151 -11.421,0.151c-7.514,-0 -11.421,-0.046 -11.421,-0.151c-0,-0.09 -0.105,-0.15 -0.226,-0.15c-0.12,-0 -0.225,-0.105 -0.225,-0.225c0,-0.121 -0.06,-0.226 -0.15,-0.226c-0.09,0 -0.151,-1.908 -0.151,-5.41c0,-3.501 0.061,-5.41 0.151,-5.41c0.09,0 0.15,-0.105 0.15,-0.225c0,-0.121 0.105,-0.226 0.225,-0.226c0.121,0 0.226,-0.075 0.226,-0.15c-0,-0.105 3.907,-0.15 11.421,-0.15c7.514,-0 11.421,0.045 11.421,0.15Z" style="fill:#fff1e8;fill-rule:nonzero;"/>
    <path d="M264.489,71.927l-0,11.722l23.744,-0l-0,-11.722l-23.744,0Z" style="fill:#fff1e8;fill-rule:nonzero;"/>
    <rect x="384.354" y="0" width="12.098" height="12.098" style="fill:#ff004d;"/>
    <path d="M384.354,12.098l12.097,-0l0,12.097l12.098,0l-0,12.098l-12.098,-0l0,12.097l-12.097,0l-0,-12.097l-12.098,-0l0,-12.098l12.098,0l-0,-12.097Z" style="fill:#fff1e8;"/>
    <rect x="372.256" y="12.098" width="12.098" height="12.098" style="fill:#ffa300;"/>
    <rect x="396.451" y="12.098" width="12.098" height="12.098" style="fill:#fca;"/>
    <rect x="360.159" y="24.195" width="12.098" height="12.098" style="fill:#ffff27;"/>
    <rect x="408.549" y="24.195" width="12.098" height="12.098" style="fill:#ff77a8;"/>
    <rect x="372.256" y="36.293" width="12.098" height="12.098" style="fill:#00e756;"/>
    <rect x="396.451" y="36.293" width="12.098" height="12.098" style="fill:#83769c;"/>
    <rect x="384.354" y="47.963" width="12.098" height="12.098" style="fill:#29adff;"/>
</svg>
