<?xml version="1.0" encoding="UTF-8" standalone="no"?>
<!DOCTYPE svg PUBLIC "-//W3C//DTD SVG 1.1//EN" "http://www.w3.org/Graphics/SVG/1.1/DTD/svg11.dtd">
<svg width="400px" height="75px" version="1.1" xmlns="http://www.w3.org/2000/svg" xmlns:xlink="http://www.w3.org/1999/xlink" xml:space="preserve" xmlns:serif="http://www.serif.com/" style="fill-rule:evenodd;clip-rule:evenodd;stroke-linejoin:round;stroke-miterlimit:2;">
    <path d="M287.74,43.394l-5.574,-0l0,-18.769l20.462,0c3.528,0 6.28,2.54 6.421,6.068l0,12.771l-5.221,0l-0,-11.712c-0,-1.764 -0.988,-2.964 -2.752,-3.105c-0.917,-0.071 -1.905,0 -2.893,0l0,14.817l-5.504,0l0,-14.887l-4.868,-0c-0.071,4.868 -0.071,14.817 -0.071,14.817l0,-0Zm84.46,-0l-5.574,-0l-0,-18.769l20.462,0c3.528,0 6.279,2.54 6.421,6.068l-0,12.771l-5.222,0l0,-11.712c0,-1.764 -0.988,-2.964 -2.752,-3.105c-0.917,-0.071 -1.905,0 -2.893,0l0,14.817l-5.503,0l-0,-14.887l-4.869,-0c-0.07,4.868 -0.07,14.817 -0.07,14.817l-0,-0Zm-151.703,-7.127c1.764,2.329 3.599,4.798 5.434,7.197l-6.21,0l-4.798,-6.985l-5.292,0l0,6.985l-5.503,0l-0,-18.768l15.099,-0c3.881,-0 6.704,3.528 5.927,7.338c-0.423,2.117 -1.764,3.387 -3.739,4.022c-0.283,-0 -0.565,0.07 -0.918,0.211Zm-10.866,-3.175l7.197,0c0.353,0 0.777,-0.141 1.129,-0.353c0.776,-0.352 1.341,-0.846 1.341,-1.834c-0,-0.988 -0.353,-1.764 -1.341,-2.187c-0.564,-0.212 -1.129,-0.353 -1.693,-0.353l-6.633,-0l0,4.727Zm69.431,10.302l-13.971,-0c-1.059,-0 -2.117,-0.212 -3.105,-0.494c-2.54,-0.776 -3.951,-2.822 -3.739,-5.433c0.141,-2.681 1.834,-4.728 4.374,-5.292c0.565,-0.141 1.2,-0.212 1.835,-0.212l8.89,0c0.212,0 -0.211,0 0,0c0,-2.046 -1.693,-3.739 -3.88,-3.739l-9.738,-0l0,-3.599l11.36,0c4.375,0 7.762,3.246 7.903,7.621l0,11.148l0.071,-0Zm-5.504,-7.903l-6.844,0c-1.411,0 -2.399,0.847 -2.47,2.188c0,1.27 0.917,2.116 2.399,2.116l6.915,0l-0,-4.304Zm-158.97,7.903l0,-3.669l12.277,-0c1.129,-0 1.835,-0.565 2.047,-1.694c0.211,-0.846 -0.353,-1.693 -1.341,-2.046c-0.423,-0.141 -0.917,-0.282 -1.411,-0.282l-7.55,-0c-3.105,-0.071 -4.869,-1.905 -5.151,-5.151c-0.212,-2.54 1.694,-5.433 4.234,-5.927l16.158,0l-0,3.81l-11.572,0c-0.353,0 -0.706,0 -0.988,0.071c-0.846,0.141 -1.482,0.706 -1.623,1.482c-0.141,0.776 0.212,1.552 0.847,2.046c0.212,0.141 0.565,0.212 0.847,0.212l8.185,-0c2.046,0.07 3.951,0.564 4.939,2.54c1.764,3.457 0.423,8.467 -4.869,8.537l-15.029,0.071Zm237.855,-19.192c2.117,0.07 4.163,0.282 6.068,1.199c2.681,1.2 4.657,3.176 5.222,6.068c0.705,3.67 0.07,7.127 -2.893,9.738c-1.694,1.481 -3.811,2.116 -5.927,2.54c-3.387,0.564 -6.562,-0 -9.596,-1.482c-2.823,-1.411 -4.022,-3.951 -4.375,-6.915c-0.141,-1.482 -0.141,-3.034 0.353,-4.516c1.129,-3.457 3.739,-5.221 7.056,-5.997c1.34,-0.423 2.116,-0.635 4.092,-0.635Zm6.139,9.808c-0,-0.353 -0,-0.706 -0.071,-1.059c-0.141,-2.54 -1.693,-4.516 -4.022,-5.151c-1.411,-0.352 -2.752,-0.352 -4.163,0c-1.975,0.424 -3.316,1.623 -3.88,3.599c-0.424,1.552 -0.424,3.175 -0.212,4.727c0.282,1.835 1.411,3.105 3.175,3.599c1.058,0.282 2.187,0.423 3.316,0.353c3.881,-0.071 5.927,-2.329 5.857,-6.068l-0,-0Zm-157.418,-1.835l0,3.599l-13.053,-0c-0,2.257 1.623,3.88 3.81,3.88l9.173,0l-0,3.811l-10.514,-0c-5.221,-0.212 -8.396,-3.952 -8.255,-8.82c0.07,-1.623 0.141,-3.176 0.776,-4.657c1.27,-3.246 4.234,-5.292 7.762,-5.292l10.372,-0l-0,3.81l-8.82,-0c-2.117,-0 -3.81,1.552 -4.093,3.74c4.234,-0.071 8.468,-0.071 12.842,-0.071Zm-49.603,7.409l0,-14.959l5.363,0l-0,18.769l-14.112,-0c-1.764,-0 -3.175,-0.635 -4.234,-1.976c-1.058,-1.27 -1.693,-2.61 -1.623,-4.374c0.071,-3.74 0,-12.419 0,-12.419l5.363,0l-0,11.995c-0.071,1.764 0.917,2.823 2.54,2.964l6.703,-0Zm13.83,-2.54l-0,6.35l-5.222,-0l0,-18.769l14.253,0c2.54,-0.07 5.081,1.835 5.786,4.587c1.129,4.092 -1.764,7.832 -5.997,7.832l-8.82,-0Zm0.141,-3.669l7.197,-0c0.282,-0 0.635,-0.212 0.847,-0.353c0.776,-0.565 1.34,-1.976 1.058,-2.752c-0.423,-1.27 -1.2,-1.835 -2.47,-1.835l-6.703,0l0,4.94l0.071,-0l-0,-0Zm91.233,-8.75l-0,3.599l-9.173,-0c-1.552,0.07 -2.893,0.776 -3.81,2.046c-0.282,0.423 -0.494,0.988 -0.565,1.764l13.266,-0l-0,3.951l-13.336,0l-0,7.409l-5.433,-0l-0,-11.078c-0,-4.022 3.034,-7.55 7.056,-7.691l11.995,0Zm82.484,15.1l-0,3.669l-9.879,-0c-4.092,-0 -7.197,-2.399 -8.255,-6.421c-0.776,-3.105 -0.424,-6.28 1.34,-8.961c1.482,-2.258 3.599,-3.387 6.351,-3.387l10.584,0l-0,3.74l-8.961,-0c-1.764,-0 -2.893,0.847 -3.458,2.469c-0.705,1.906 -0.776,4.093 -0.141,6.068c0.565,1.835 1.976,2.823 3.951,2.823l8.468,-0Zm-118.963,20.815l-0,-3.387l13.053,-0l0,-5.574l-12.842,-0l0,-3.246l15.665,0l-0,12.277c-5.292,-0.07 -10.584,-0.07 -15.876,-0.07l-0,-0Zm-106.403,-9.102l-0,-3.317l13.053,0c0.353,2.399 0.141,4.657 -0.635,6.915c-0.071,0.212 -0.212,0.565 -0.212,0.565c0,-0 2.399,3.387 3.528,4.939l-3.669,-0c0,-0 -1.27,-1.694 -1.764,-2.399c-0.282,0.211 -0.494,0.353 -0.705,0.564c-1.553,1.2 -3.176,1.905 -5.222,1.835l-4.868,-0l-0,-3.387l3.457,-0c1.482,-0 2.893,-0.141 4.234,-0.635c2.116,-0.847 3.386,-2.752 3.245,-5.08l-10.442,-0Zm198.483,-26.813l5.785,0l0,18.769l-5.785,-0l-0,-18.769Zm-138.79,35.915l-0,-3.387l6.773,-0c2.752,0.141 4.869,-1.623 4.798,-5.01c0,-0.211 0,-0.423 -0.07,-0.705l-12.348,-0l-0,-3.175l14.888,-0l-0,6.068c-0,0.564 -0.212,1.199 -0.424,1.693c-0.987,2.681 -3.034,4.304 -5.856,4.516l-7.761,-0l-0,-0Zm15.311,-6.562l-0,-2.893l13.124,-0l-0,4.304c-0,1.693 -1.2,2.47 -6.068,2.47c-0,-0 -0.071,0.776 -0.212,0.987c-0.494,1.27 -1.482,1.764 -2.963,1.764l-3.105,0l0,-2.963l3.105,-0c-0,-0 1.34,-0.212 1.481,-1.27c0.071,-0.282 0.071,-0.635 0.142,-0.988l4.021,-0c0.918,-0 1.2,-0.282 1.2,-1.341c-3.528,-0.07 -7.127,-0.07 -10.725,-0.07l-0,-0Zm64.562,-5.574l-0,6.914c-0.565,3.881 -4.022,5.292 -6.562,5.222l-9.032,-0l0,-3.387l9.243,-0c1.905,0.071 3.81,-1.693 3.81,-3.881l0,-4.798c0.918,-0.07 1.764,-0.07 2.541,-0.07Zm-104.499,-0.283l2.823,0l-0,4.798c-0.212,3.176 2.046,4.093 4.092,4.093l0.847,-0l-0,3.387c-4.586,0.282 -7.62,-1.764 -7.762,-6.28c-0.07,-1.764 0,-3.528 0,-5.292l0,-0.706Zm69.854,8.538l-15.382,-1.976l0,-2.963l15.382,1.834m0,-0.987l-15.382,-1.905l0,-2.964l15.382,1.835m0,8.184l0,3.105c-5.151,-0.635 -10.302,-1.27 -15.452,-1.976l-0,-3.034c5.15,0.565 10.301,1.341 15.452,1.905Zm-78.885,2.682l-0,-3.387c0.705,-0.071 1.34,-0.071 1.976,-0.141c1.905,-0.283 2.963,-1.623 2.963,-3.528l0,-5.151l2.893,-0l-0,4.163c-0,0.917 -0,1.905 -0.141,2.752c-0.635,3.175 -2.611,4.798 -5.927,5.08c-0.565,0.212 -1.129,0.212 -1.764,0.212Z" style="fill:#c4c4c4;fill-rule:nonzero;"/>
    <path d="M140.201,52.778l0,3.105l-11.783,-0l-0,-3.105l11.783,0Zm16.652,-0.141l11.783,0l0,3.105l-11.783,-0l0,-3.105Zm90.316,-4.374l-0,3.245l-9.314,0l0,-3.245l9.314,-0Zm-90.175,1.975c0,1.27 -1.058,2.258 -2.258,2.258c-1.199,0 -2.258,-0.988 -2.258,-2.258c0,-1.27 0.988,-2.328 2.258,-2.328c1.27,0.07 2.258,1.058 2.258,2.328Zm-1.411,0c0,-0.494 -0.494,-0.988 -0.988,-0.988c-0.494,0 -0.988,0.494 -0.917,1.059c0.071,0.564 0.423,0.917 0.988,0.917c0.635,-0.071 0.917,-0.494 0.917,-0.988Z" style="fill:#c4c4c4;fill-rule:nonzero;"/>
    <path d="M255.848,50.45l-0,-2.964l1.34,0c0.282,0 0.494,0 0.635,0.071c0.141,0.071 0.282,0.141 0.353,0.282c0.071,0.141 0.141,0.282 0.141,0.424c0,0.211 -0.07,0.423 -0.212,0.564c-0.141,0.141 -0.352,0.212 -0.635,0.282c0.071,0.071 0.212,0.071 0.212,0.141c0.141,0.071 0.212,0.212 0.353,0.424l0.494,0.846l-0.494,0l-0.423,-0.635c-0.142,-0.211 -0.212,-0.282 -0.283,-0.423l-0.211,-0.212c-0.071,-0.07 -0.141,-0.07 -0.212,-0.07l-0.635,-0l-0,1.34l-0.423,0l-0,-0.07l-0,-0Zm0.423,-1.694l0.847,0c0.211,0 0.352,0 0.423,-0.07c0.071,-0.071 0.212,-0.071 0.212,-0.212c0.07,-0.07 0.07,-0.141 0.07,-0.282c0,-0.141 -0.07,-0.282 -0.141,-0.353c-0.07,-0.07 -0.282,-0.141 -0.494,-0.141l-0.917,0l-0,1.058l-0,0Z" style="fill:#c4c4c4;fill-rule:nonzero;"/>
    <path d="M257.047,51.72c-1.552,-0 -2.752,-1.27 -2.752,-2.752c0,-1.552 1.27,-2.752 2.752,-2.752c1.552,0 2.752,1.27 2.752,2.752c-0,1.552 -1.2,2.752 -2.752,2.752Zm0,-5.01c-1.27,0 -2.258,0.988 -2.258,2.258c0,1.27 0.988,2.258 2.258,2.258c1.27,0 2.258,-0.988 2.258,-2.258c-0,-1.27 -0.988,-2.258 -2.258,-2.258Zm139.072,-20.603l0,-2.964l1.341,0c0.282,0 0.494,0 0.635,0.071c0.141,0.071 0.282,0.141 0.353,0.282c0.07,0.141 0.141,0.283 0.141,0.424c-0,0.211 -0.071,0.423 -0.212,0.564c-0.141,0.141 -0.353,0.212 -0.635,0.282c0.071,0.071 0.212,0.071 0.212,0.141c0.141,0.071 0.211,0.212 0.353,0.424l0.493,0.847l-0.493,-0l-0.424,-0.635c-0.141,-0.212 -0.211,-0.283 -0.282,-0.424l-0.212,-0.212c-0.07,-0.07 -0.141,-0.07 -0.211,-0.07l-0.635,-0l-0,1.341l-0.424,-0.071l0,-0Zm0.353,-1.693l0.847,-0c0.211,-0 0.353,-0 0.423,-0.071c0.071,-0.071 0.212,-0.071 0.212,-0.212c0.07,-0.07 0.07,-0.141 0.07,-0.282c0,-0.141 -0.07,-0.282 -0.141,-0.353c-0.07,-0.07 -0.282,-0.141 -0.494,-0.141l-0.917,0l0,1.058l0,0.001Z" style="fill:#c4c4c4;fill-rule:nonzero;"/>
    <path d="M397.248,27.377c-1.552,0 -2.752,-1.27 -2.752,-2.752c0,-1.482 1.27,-2.752 2.752,-2.752c1.552,0 2.752,1.27 2.752,2.752c0,1.482 -1.2,2.752 -2.752,2.752Zm0,-5.01c-1.27,0 -2.258,0.988 -2.258,2.258c0,1.27 0.988,2.258 2.258,2.258c1.27,0 2.258,-0.988 2.258,-2.258c0,-1.27 -0.988,-2.258 -2.258,-2.258Z" style="fill:#c4c4c4;fill-rule:nonzero;"/>
    <path d="M44.876,45.158c-0,6.209 -10.02,11.219 -22.438,11.219c-12.419,-0 -22.438,-5.01 -22.438,-11.219c0,-6.209 10.019,-11.219 22.438,-11.219c12.418,0 22.438,5.01 22.438,11.219Z" style="fill:#01954b;fill-rule:nonzero;"/>
    <path d="M83.542,62.868c0,6.209 -10.019,11.219 -22.438,11.219c-12.418,0 -22.438,-5.01 -22.438,-11.219c0,-6.209 10.02,-11.219 22.438,-11.219c12.419,0 22.438,5.01 22.438,11.219Z" style="fill:#f9ec2b;fill-rule:nonzero;"/>
    <path d="M45.722,0c-11.289,0 -20.532,9.032 -20.744,20.321c0.494,0 0.917,-0.071 1.411,-0.071c11.501,0 20.815,9.314 20.815,20.815l0,0.494c10.796,-0.705 19.333,-9.737 19.333,-20.744c0,-11.501 -9.314,-20.815 -20.815,-20.815l0,0Z" style="fill:#323b98;fill-rule:nonzero;"/>
    <path d="M85.094,18.204c-11.501,0 -20.744,9.314 -20.744,20.815l-0,0.776l0.847,0c11.219,0 20.391,8.891 20.744,20.039c11.078,-0.423 19.968,-9.525 19.968,-20.744c-0.07,-11.572 -9.384,-20.886 -20.815,-20.886Z" style="fill:#eb2d2f;fill-rule:nonzero;"/>
</svg>
